#N canvas 1 158 322 300 10;
#X obj 15 10 inlet~;
#X obj 15 208 *~;
#X obj 80 208 *~;
#X obj 14 261 outlet~;
#X obj 80 260 outlet~;
#X obj 98 12 inlet pan;
#X obj 127 76 loadbang;
#X obj 99 149 *~;
#X obj 183 152 *~;
#X obj 127 98 \$1;
#X obj 98 42 clip 0 1;
#X obj 98 125 a.coscrossfade~;
#X connect 0 0 1 0;
#X connect 0 0 2 0;
#X connect 1 0 3 0;
#X connect 2 0 4 0;
#X connect 5 0 10 0;
#X connect 6 0 9 0;
#X connect 7 0 1 1;
#X connect 8 0 2 1;
#X connect 9 0 11 0;
#X connect 10 0 11 0;
#X connect 11 0 7 0;
#X connect 11 0 7 1;
#X connect 11 1 8 0;
#X connect 11 1 8 1;
