#N canvas 1 148 322 316 10;
#X obj 15 10 inlet~;
#X obj 15 228 *~;
#X obj 80 228 *~;
#X obj 14 281 outlet~;
#X obj 79 11 inlet~;
#X obj 15 250 +~;
#X obj 143 11 inlet;
#X obj 183 92 loadbang;
#X obj 226 168 *~;
#X obj 143 168 *~;
#X obj 143 138 a.coscrossfade~;
#X obj 183 114 \$1;
#X obj 143 33 clip 0 1;
#X connect 0 0 1 0;
#X connect 1 0 5 0;
#X connect 2 0 5 1;
#X connect 4 0 2 0;
#X connect 5 0 3 0;
#X connect 6 0 12 0;
#X connect 7 0 11 0;
#X connect 8 0 2 1;
#X connect 9 0 1 1;
#X connect 10 0 9 0;
#X connect 10 0 9 1;
#X connect 10 1 8 1;
#X connect 10 1 8 0;
#X connect 11 0 10 0;
#X connect 12 0 10 0;
