#N canvas 2 83 659 439 10;
#X obj 77 35 inlet;
#X obj 77 287 pack f f;
#X text 201 6 a.amp~;
#X obj 170 34 inlet;
#X obj 170 56 max 1;
#X obj 130 207 \$1;
#X obj 130 229 sel 0;
#X msg 130 251 20;
#X obj 130 185 loadbang;
#X obj 77 411 outlet~;
#X obj 240 34 inlet;
#X obj 240 56 max 0.001;
#X text 410 110 \$1 = ramp time \; \$2 = scaling factor;
#X text 209 294 smoothed amplitude control with adjustable ramp time
and scaling factor;
#X obj 95 151 sel 0;
#X obj 95 107 loadbang;
#X obj 95 129 \$2;
#X msg 95 173 1;
#X obj 77 196 pow;
#X obj 77 319 vline~;
#X connect 0 0 18 0;
#X connect 1 0 19 0;
#X connect 3 0 4 0;
#X connect 4 0 5 0;
#X connect 5 0 6 0;
#X connect 6 0 7 0;
#X connect 6 1 1 1;
#X connect 7 0 1 1;
#X connect 8 0 5 0;
#X connect 10 0 11 0;
#X connect 11 0 16 0;
#X connect 14 0 17 0;
#X connect 14 1 18 1;
#X connect 15 0 16 0;
#X connect 16 0 14 0;
#X connect 17 0 18 1;
#X connect 18 0 1 0;
#X connect 19 0 9 0;
