#N canvas 328 170 318 309 10;
#X obj 123 191 cos~;
#X obj 49 192 cos~;
#X text 77 88 <-- Range: 0-.25;
#X obj 122 167 +~ 0.75;
#X obj 50 90 f;
#X obj 50 25 inlet;
#X obj 124 236 outlet~;
#X obj 50 236 outlet~;
#X obj 50 65 * 0.25;
#X msg 50 113 \$1 10;
#X obj 50 135 line~;
#X connect 0 0 6 0;
#X connect 1 0 7 0;
#X connect 3 0 0 0;
#X connect 4 0 9 0;
#X connect 5 0 8 0;
#X connect 8 0 4 0;
#X connect 9 0 10 0;
#X connect 10 0 3 0;
#X connect 10 0 1 0;
