#N canvas 247 359 346 299 10;
#N canvas 396 114 730 828 crossover 0;
#X obj 79 291 samplerate~;
#X obj 47 266 t f b;
#X obj 47 316 /;
#X obj 49 243 * 1;
#X obj 47 368 expr tan($f1*3.14159);
#X obj 49 143 t f b b;
#X obj 47 343 clip 0 0.125;
#X obj 118 426 pow 2;
#X obj 47 427 * 1.41421;
#X obj 47 393 t f f;
#X text 211 504 A0;
#X obj 47 526 t f f f f f;
#X text 159 426 K1 / K2;
#X obj 47 557 pack 0 0;
#X obj 118 448 t f f;
#X obj 80 646 expr 1 - ($f1+4*$f2);
#X obj 47 611 t f f;
#X text 206 589 B1;
#X text 229 643 B2;
#X obj 47 688 * 1;
#X obj 118 688 * 2;
#X obj 49 7 inlet cutoffFreq;
#X obj 63 46 loadbang;
#X obj 47 716 pack 0 0 0 0 0;
#X obj 72 193 max 1;
#X obj 47 472 pack 0 0;
#X obj 47 502 expr $f2 / ($f1+$f2+1);
#X obj 47 588 expr 2*$f1*(1/$f2-1);
#X obj 49 100 max 1;
#X obj 408 307 samplerate~;
#X obj 376 282 t f b;
#X obj 376 332 /;
#X obj 378 259 * 1;
#X obj 376 411 expr tan($f1*3.14159);
#X obj 378 159 t f b b;
#X obj 376 359 clip 0 0.125;
#X obj 453 469 pow 2;
#X obj 376 470 * 1.41421;
#X obj 376 436 t f f;
#X text 543 536 A0;
#X obj 376 567 t f f f f f;
#X text 494 469 K1 / K2;
#X obj 376 598 pack 0 0;
#X obj 454 491 t f f;
#X obj 410 678 expr 1 - ($f1+4*$f2);
#X obj 378 653 t f f;
#X text 529 630 B1;
#X text 562 681 B2;
#X obj 378 739 pack 0 0 0 0 0;
#X obj 401 210 max 1;
#X obj 376 515 pack 0 0;
#X obj 376 538 expr $f2 / ($f1+$f2+1);
#X obj 376 630 expr 2*$f1*(1/$f2-1);
#X obj 48 773 outlet B1 B2 A0 A1 A2 (lowpass);
#X obj 378 776 outlet B1 B2 A0 A1 A2 hisghpass);
#X obj 401 233 expr pow(pow(2 \, 1/$f1)-1 \, 0.25);
#X obj 72 219 expr pow(pow(2 \, 1/$f1)-1 \, -0.25);
#X obj 378 712 * -1;
#X obj 449 713 * -2;
#X obj 376 386 expr 0.5 - $f1;
#X obj 72 168 f 2;
#X obj 401 185 f 2;
#X obj 49 76 f;
#X connect 0 0 2 1;
#X connect 1 0 2 0;
#X connect 1 1 0 0;
#X connect 2 0 6 0;
#X connect 3 0 1 0;
#X connect 4 0 9 0;
#X connect 5 0 3 0;
#X connect 5 1 60 0;
#X connect 6 0 4 0;
#X connect 7 0 14 0;
#X connect 8 0 25 0;
#X connect 9 0 8 0;
#X connect 9 1 7 0;
#X connect 11 0 13 0;
#X connect 11 1 23 2;
#X connect 11 2 20 0;
#X connect 11 3 23 4;
#X connect 11 4 15 1;
#X connect 13 0 27 0;
#X connect 14 0 25 1;
#X connect 14 1 13 1;
#X connect 15 0 23 1;
#X connect 16 0 19 0;
#X connect 16 1 15 0;
#X connect 19 0 23 0;
#X connect 20 0 23 3;
#X connect 21 0 62 0;
#X connect 22 0 62 0;
#X connect 23 0 53 0;
#X connect 24 0 56 0;
#X connect 25 0 26 0;
#X connect 26 0 11 0;
#X connect 27 0 16 0;
#X connect 28 0 5 0;
#X connect 28 0 34 0;
#X connect 29 0 31 1;
#X connect 30 0 31 0;
#X connect 30 1 29 0;
#X connect 31 0 35 0;
#X connect 32 0 30 0;
#X connect 33 0 38 0;
#X connect 34 0 32 0;
#X connect 34 1 61 0;
#X connect 35 0 59 0;
#X connect 36 0 43 0;
#X connect 37 0 50 0;
#X connect 38 0 37 0;
#X connect 38 1 36 0;
#X connect 40 0 42 0;
#X connect 40 1 48 2;
#X connect 40 2 58 0;
#X connect 40 3 48 4;
#X connect 40 4 44 1;
#X connect 42 0 52 0;
#X connect 43 0 50 1;
#X connect 43 1 42 1;
#X connect 44 0 48 1;
#X connect 45 0 57 0;
#X connect 45 1 44 0;
#X connect 48 0 54 0;
#X connect 49 0 55 0;
#X connect 50 0 51 0;
#X connect 51 0 40 0;
#X connect 52 0 45 0;
#X connect 55 0 32 1;
#X connect 56 0 3 1;
#X connect 57 0 48 0;
#X connect 58 0 48 3;
#X connect 59 0 33 0;
#X connect 60 0 24 0;
#X connect 61 0 49 0;
#X connect 62 0 28 0;
#X restore 137 135 pd crossover;
#X text 96 25 Linkwitz-Riley crossover;
#X obj 68 53 inlet~;
#X obj 69 232 outlet~;
#X obj 214 232 outlet~;
#X text 71 259 low;
#X text 212 255 high;
#X obj 137 54 inlet crossover-freq;
#N canvas 1 83 590 301 biquads___________ 0;
#X obj 112 131 biquad~;
#X obj 112 154 biquad~;
#X obj 186 130 biquad~;
#X obj 186 153 biquad~;
#X obj 112 212 outlet~;
#X obj 187 210 outlet~;
#X obj 112 64 inlet~ L;
#X obj 324 63 inlet coefs_High;
#X obj 206 63 inlet coefs_Low;
#X connect 0 0 1 0;
#X connect 1 0 4 0;
#X connect 2 0 3 0;
#X connect 3 0 5 0;
#X connect 6 0 0 0;
#X connect 6 0 2 0;
#X connect 7 0 2 0;
#X connect 7 0 3 0;
#X connect 8 0 0 0;
#X connect 8 0 1 0;
#X restore 69 170 pd biquads___________;
#X connect 0 0 8 1;
#X connect 0 1 8 2;
#X connect 2 0 8 0;
#X connect 7 0 0 0;
#X connect 8 0 3 0;
#X connect 8 1 4 0;
