#N canvas 1 58 711 314 10;
#X obj 27 30 inlet~;
#X obj 27 259 outlet~;
#X obj 462 157 samplerate~;
#X obj 311 33 inlet;
#X obj 311 127 t f b;
#X text 27 9 sig.in~;
#X text 28 279 sig.out~;
#X obj 311 181 expr exp(-1/($f1*$f2));
#X text 72 110 rectify;
#X obj 27 226 fexpr~ if($x1 >= $y[-1] \, $x1 \, $y[-1]*$f2);
#X obj 27 109 abs~;
#X text 475 181 calculate decay coefficient;
#X text 312 15 decay time in sec;
#X obj 311 105 \$1;
#X obj 324 79 loadbang;
#X connect 0 0 10 0;
#X connect 2 0 7 1;
#X connect 3 0 13 0;
#X connect 4 0 7 0;
#X connect 4 1 2 0;
#X connect 7 0 9 1;
#X connect 9 0 1 0;
#X connect 10 0 9 0;
#X connect 13 0 4 0;
#X connect 14 0 13 0;
