#N canvas 1 58 465 566 10;
#X obj 81 281 lop~ 2000;
#X obj 81 307 lop~ 2000;
#X obj 81 334 samphold~;
#X obj 216 133 mtof~;
#X obj 216 155 phasor~;
#X obj 216 199 *~ 2;
#X obj 216 221 -~ 1;
#X obj 81 66 inlet~;
#X obj 216 177 expr~ $v1 > 0.5;
#X text 73 43 SIGNAL IN;
#X obj 81 356 lop~ 2000;
#X obj 81 378 lop~ 2000;
#X obj 81 486 outlet~;
#X obj 81 458 *~ 0.5;
#X obj 217 54 inlet;
#X obj 217 76 clip 0 127;
#X obj 217 98 sig~;
#X connect 0 0 1 0;
#X connect 1 0 2 0;
#X connect 2 0 10 0;
#X connect 3 0 4 0;
#X connect 4 0 8 0;
#X connect 5 0 6 0;
#X connect 6 0 2 1;
#X connect 7 0 0 0;
#X connect 8 0 5 0;
#X connect 10 0 11 0;
#X connect 11 0 13 0;
#X connect 13 0 12 0;
#X connect 14 0 15 0;
#X connect 15 0 16 0;
#X connect 16 0 3 0;
