#N canvas 1 69 458 281 10;
#N canvas 252 101 470 473 fftStuff 0;
#X obj 59 63 inlet~;
#X obj 59 146 *~;
#X obj 59 178 rfft~;
#X obj 59 233 *~;
#X obj 92 233 *~;
#X obj 59 265 -~;
#X obj 143 64 inlet~;
#X obj 143 145 *~;
#X obj 143 178 rfft~;
#X obj 143 238 *~;
#X obj 174 238 *~;
#X obj 143 270 +~;
#X obj 60 307 rifft~;
#X obj 60 362 *~;
#X obj 60 426 outlet~;
#X msg 316 92 set \$1 4;
#X obj 162 116 tabreceive~ \$0-hann;
#X obj 316 116 block~ 1024 4;
#X obj 316 62 r \$0-window-size;
#X obj 77 339 tabreceive~ \$0-hann;
#X connect 0 0 1 0;
#X connect 1 0 2 0;
#X connect 2 0 3 0;
#X connect 2 0 9 1;
#X connect 2 1 4 0;
#X connect 2 1 10 1;
#X connect 3 0 5 0;
#X connect 4 0 5 1;
#X connect 5 0 12 0;
#X connect 6 0 7 0;
#X connect 7 0 8 0;
#X connect 8 0 9 0;
#X connect 8 0 3 1;
#X connect 8 1 10 0;
#X connect 8 1 4 1;
#X connect 9 0 11 0;
#X connect 10 0 11 1;
#X connect 11 0 12 1;
#X connect 12 0 13 0;
#X connect 13 0 14 0;
#X connect 15 0 17 0;
#X connect 16 0 1 1;
#X connect 16 0 7 1;
#X connect 18 0 15 0;
#X connect 19 0 13 1;
#X restore 26 159 pd fftStuff;
#N canvas 1 122 519 469 hann-window 0;
#N canvas 0 50 450 300 (subpatch) 0;
#X array \$0-hann 1024 float 0;
#X coords 0 1 1023 0 300 100 1;
#X restore 86 343 graph;
#X obj 277 141 osc~;
#X obj 277 166 *~ -0.5;
#X obj 277 190 +~ 0.5;
#X obj 277 223 tabwrite~ \$0-hann;
#X obj 145 192 /;
#X obj 163 163 samplerate~;
#X obj 28 230 swap;
#X obj 28 254 /;
#X obj 156 229 * 1000;
#X obj 145 94 t f b f;
#X msg 191 116 resize \$1;
#X obj 191 140 s \$0-hann;
#X msg 323 117 0;
#X text 69 6 calculate Hann window table (variable window size) and
constants window-hz (fundamental frequency of analysis) \, window-sec
and window-msec (analysis window size in seconds and msec).;
#X obj 145 67 r \$0-window-size;
#X obj 277 66 r \$0-window-hz;
#X obj 156 256 s \$0-window-msec;
#X obj 145 280 s \$0-window-sec;
#X obj 28 278 s \$0-window-hz;
#X obj 277 92 t f b b;
#X connect 1 0 2 0;
#X connect 2 0 3 0;
#X connect 3 0 4 0;
#X connect 5 0 9 0;
#X connect 5 0 18 0;
#X connect 6 0 5 1;
#X connect 6 0 7 1;
#X connect 7 0 8 0;
#X connect 7 1 8 1;
#X connect 8 0 19 0;
#X connect 9 0 17 0;
#X connect 10 0 5 0;
#X connect 10 0 7 0;
#X connect 10 1 6 0;
#X connect 10 2 11 0;
#X connect 11 0 12 0;
#X connect 13 0 1 1;
#X connect 15 0 10 0;
#X connect 16 0 20 0;
#X connect 20 0 1 0;
#X connect 20 1 4 0;
#X connect 20 2 13 0;
#X restore 123 158 pd hann-window;
#X obj 26 95 inlet~;
#X obj 99 95 inlet~;
#X obj 26 228 outlet~;
#X msg 241 133 1024;
#X obj 241 169 s \$0-window-size;
#X text 32 9 CONVOLVER;
#X obj 241 104 loadbang;
#N canvas 750 115 503 525 LICENCE 0;
#X text 63 55 Attribution 4 International (CC BY 4.0) This is a human-readable
summary of (and not a substitute for) the license. Disclaimer This
license is acceptable for Free Cultural Works.;
#X text 63 131 You are free to: Share - copy and redistribute the material
in any medium or format.;
#X text 63 181 Adapt - remix \, transform \, and build upon the material
for any purpose \, even commercially.;
#X text 63 231 The licensor cannot revoke these freedoms as long as
you follow the license terms. Under the following terms:;
#X text 63 281 Attribution - You must give appropriate credit \, provide
a link to the license \, and indicate if changes were made. You may
do so in any reasonable manner \, but not in any way that suggests
the licensor endorses you or your use.;
#X text 63 357 No additional restrictions - You may not apply legal
terms or technological measures that legally restrict others from doing
anything the license permits.;
#X text 63 420 Notices: You do not have to comply with the license
for elements of the material in the public domain or where your use
is permitted by an applicable exception or limitation. No warranties
are given. The license may not give you all of the permissions necessary
for your intended use. For example \, other rights such as publicity
\, privacy \, or moral rights may limit how you use the material.;
#X text 64 19 J.R.Dooley \, 2013;
#X restore 247 13 pd LICENCE;
#X text 32 36 *WARNING* - use with caution: this can produce some loud
noises!;
#X connect 0 0 4 0;
#X connect 2 0 0 0;
#X connect 3 0 0 1;
#X connect 5 0 6 0;
#X connect 8 0 5 0;
