#N canvas 1 68 368 480 10;
#X msg 240 237 1 \$1;
#X obj 240 259 -;
#X obj 59 70 inlet~;
#X obj 146 426 outlet~;
#X obj 218 73 inlet distAmount;
#X obj 144 251 clip~ 0 0.5;
#X obj 240 281 sqrt;
#X obj 77 248 sqrt;
#X text 54 12 DISTORTION;
#X obj 218 202 clip 0.01 1;
#X obj 77 271 sig~;
#X obj 77 293 lop~ 64;
#X obj 60 317 *~;
#X obj 145 357 *~;
#X obj 240 303 sig~;
#X obj 240 325 lop~ 64;
#X text 55 37 \$1 = distortion amount (0.01 - 1);
#X obj 218 180 -;
#X msg 218 156 1 \$1;
#X obj 230 132 \$1;
#X obj 230 110 loadbang;
#N canvas 751 110 503 525 LICENCE 0;
#X text 63 55 Attribution 4 International (CC BY 4.0) This is a human-readable
summary of (and not a substitute for) the license. Disclaimer This
license is acceptable for Free Cultural Works.;
#X text 63 131 You are free to: Share - copy and redistribute the material
in any medium or format.;
#X text 63 181 Adapt - remix \, transform \, and build upon the material
for any purpose \, even commercially.;
#X text 63 231 The licensor cannot revoke these freedoms as long as
you follow the license terms. Under the following terms:;
#X text 63 281 Attribution - You must give appropriate credit \, provide
a link to the license \, and indicate if changes were made. You may
do so in any reasonable manner \, but not in any way that suggests
the licensor endorses you or your use.;
#X text 63 357 No additional restrictions - You may not apply legal
terms or technological measures that legally restrict others from doing
anything the license permits.;
#X text 63 420 Notices: You do not have to comply with the license
for elements of the material in the public domain or where your use
is permitted by an applicable exception or limitation. No warranties
are given. The license may not give you all of the permissions necessary
for your intended use. For example \, other rights such as publicity
\, privacy \, or moral rights may limit how you use the material.;
#X text 64 19 J.R.Dooley \, 2013;
#X restore 193 19 pd LICENCE;
#X connect 0 0 1 0;
#X connect 1 0 6 0;
#X connect 2 0 5 0;
#X connect 2 0 12 0;
#X connect 4 0 18 0;
#X connect 5 0 13 0;
#X connect 6 0 14 0;
#X connect 7 0 10 0;
#X connect 9 0 0 0;
#X connect 9 0 5 2;
#X connect 9 0 7 0;
#X connect 10 0 11 0;
#X connect 11 0 12 1;
#X connect 12 0 3 0;
#X connect 13 0 3 0;
#X connect 14 0 15 0;
#X connect 15 0 13 1;
#X connect 17 0 9 0;
#X connect 18 0 17 0;
#X connect 19 0 18 0;
#X connect 20 0 19 0;
