#N canvas 144 54 1056 687 10;
#X obj 68 95 inlet~;
#X obj 195 93 inlet;
#X obj 69 616 outlet~;
#X obj 69 119 clip~ -100 100;
#X obj 368 86 inlet;
#X obj 569 83 inlet;
#X obj 570 207 dbtorms;
#X obj 197 448 max~;
#X obj 376 392 line~;
#X msg 376 364 \$1 100;
#X text 766 608 IEM KUG;
#X text 736 595 musil;
#X text 776 596 @;
#X text 786 596 iem.at;
#X text 744 618 Graz \, Austria;
#X obj 179 491 /~;
#X obj 70 510 *~;
#X obj 528 605 outlet~;
#X obj 527 581 clip~ 0 1;
#N canvas 505 349 450 300 order_forced_delwrite~ 0;
#X obj 60 31 inlet~;
#X obj 61 242 outlet~;
#X obj 77 81 delwrite~ \$0_limiter_pre_delay 100;
#X connect 0 0 1 0;
#X connect 0 0 2 0;
#X restore 69 282 pd order_forced_delwrite~;
#N canvas 593 386 450 300 order_forced_delread~ 0;
#X obj 60 31 inlet~;
#X obj 60 218 outlet~;
#X obj 240 29 inlet;
#X obj 59 191 delread~ \$0_limiter_pre_delay 1;
#X connect 2 0 3 0;
#X connect 3 0 1 0;
#X restore 69 324 pd order_forced_delread~;
#X text 75 303 order forcing;
#N canvas 33 87 471 528 lowpass_1o_time~ 0;
#X obj 79 409 biquad~;
#X obj 144 52 inlet;
#X obj 79 52 inlet~;
#X obj 79 430 outlet~;
#X text 26 17 low_pass_1p~ : low pass filter of first order (one pole)
;
#X obj 328 55 inlet;
#X text 330 37 init-bang;
#N canvas 0 22 592 476 transf 0;
#X obj 122 204 samplerate~;
#X obj 77 60 inlet;
#X text 79 42 freq;
#X text 136 305 l;
#X obj 78 308 outlet;
#X obj 262 65 inlet;
#X text 261 46 init-bang;
#X obj 262 90 t b b;
#X obj 77 252 * 44100;
#X text 148 249 T*SR;
#X obj 78 213 * 2;
#X obj 77 277 clip 1e-10 1e+10;
#X obj 77 148 f;
#X connect 0 0 8 1;
#X connect 1 0 12 0;
#X connect 5 0 7 0;
#X connect 7 0 12 0;
#X connect 7 1 0 0;
#X connect 8 0 11 0;
#X connect 10 0 8 0;
#X connect 11 0 4 0;
#X connect 12 0 10 0;
#X restore 142 138 pd transf;
#X obj 141 164 t f f;
#X obj 194 212 + 1;
#X obj 139 212 - 1;
#X msg 193 234 1 \$1;
#X obj 193 256 /;
#X obj 111 287 expr $f1*$f2 \; $f2 \; $f2;
#X obj 111 361 pack 0 0 0 0 0;
#X text 146 34 time tau;
#X connect 0 0 3 0;
#X connect 1 0 7 0;
#X connect 2 0 0 0;
#X connect 5 0 7 1;
#X connect 7 0 8 0;
#X connect 8 0 10 0;
#X connect 8 1 9 0;
#X connect 9 0 11 0;
#X connect 10 0 13 0;
#X connect 11 0 12 0;
#X connect 12 0 13 1;
#X connect 13 0 14 0;
#X connect 13 1 14 2;
#X connect 13 2 14 3;
#X connect 14 0 0 0;
#X restore 270 325 pd lowpass_1o_time~;
#X text 551 64 3.) limiter-threshold dB;
#X text 687 584 (c) Thomas Musil 2000 - 2010;
#X text 14 17 limiter~;
#X text 177 73 1.)attack-time sec;
#X text 350 67 2.) release-time sec;
#X text 947 71 5.) init bang;
#X obj 569 149 clip -120 20;
#X obj 570 180 + 120;
#X obj 570 233 * 0.1;
#X obj 766 86 inlet;
#X obj 765 215 dbtorms;
#X text 748 67 4.) make-up gain dB;
#X obj 764 157 clip -100 100;
#X obj 765 188 + 100;
#X text 513 631 to side chain;
#X text 109 14 This is a peak limiter with hard limitation knee (1
: inf) \, with attack and release time in sec \, with a look ahead
of 1/3 of the attack time \, that means we have 1/3 of attack time
as signal delay.;
#X obj 195 154 clip 0 0.03333;
#X obj 206 303 * 3000;
#X obj 368 157 clip 0.0001 100;
#N canvas 0 22 676 345 peakenv~ 0;
#X obj 27 30 inlet~;
#X obj 27 259 outlet~;
#X obj 463 121 samplerate~;
#X obj 374 33 inlet;
#X obj 374 61 t f b;
#X obj 592 34 inlet;
#X text 27 9 sig.in~;
#X text 28 279 sig.out~;
#X text 589 15 init bang;
#X obj 312 181 expr exp(-1/($f1*$f2));
#X text 72 70 rectify;
#X obj 27 226 fexpr~ if($x1 >= $y[-1] \, $x1 \, $y[-1]*$f2);
#X obj 27 69 abs~;
#X text 476 181 calculate decay coefficient;
#X text 375 15 decay time in sec;
#X connect 0 0 12 0;
#X connect 2 0 9 1;
#X connect 3 0 4 0;
#X connect 4 0 9 0;
#X connect 4 1 2 0;
#X connect 5 0 2 0;
#X connect 9 0 11 1;
#X connect 11 0 1 0;
#X connect 12 0 11 0;
#X restore 269 284 pd peakenv~;
#X obj 216 127 \$1;
#X obj 397 127 \$2;
#X obj 595 120 \$3;
#X obj 786 128 \$4;
#X obj 901 78 inlet;
#X obj 965 116 t a;
#X obj 967 94 loadbang;
#X connect 0 0 3 0;
#X connect 1 0 39 0;
#X connect 3 0 19 0;
#X connect 3 0 42 0;
#X connect 4 0 41 0;
#X connect 5 0 29 0;
#X connect 6 0 31 0;
#X connect 7 0 15 1;
#X connect 8 0 7 1;
#X connect 8 0 15 0;
#X connect 9 0 8 0;
#X connect 15 0 16 1;
#X connect 15 0 18 0;
#X connect 16 0 2 0;
#X connect 18 0 17 0;
#X connect 19 0 20 0;
#X connect 20 0 16 0;
#X connect 22 0 7 0;
#X connect 29 0 30 0;
#X connect 30 0 6 0;
#X connect 31 0 9 0;
#X connect 32 0 35 0;
#X connect 35 0 36 0;
#X connect 36 0 33 0;
#X connect 39 0 22 1;
#X connect 39 0 40 0;
#X connect 40 0 20 1;
#X connect 41 0 42 1;
#X connect 42 0 22 0;
#X connect 43 0 39 0;
#X connect 44 0 41 0;
#X connect 45 0 29 0;
#X connect 46 0 35 0;
#X connect 47 0 48 0;
#X connect 48 0 22 2;
#X connect 48 0 42 2;
#X connect 48 0 46 0;
#X connect 48 0 45 0;
#X connect 48 0 44 0;
#X connect 48 0 43 0;
#X connect 49 0 48 0;
