#N canvas 610 119 385 450 10;
#X obj 62 96 inlet~;
#X obj 61 352 *~;
#X obj 130 253 osc~;
#X obj 130 297 +~;
#X obj 130 275 *~;
#X obj 129 229 lop~ 64;
#X obj 129 96 inlet rate;
#X obj 272 237 sig~;
#X obj 272 259 lop~ 64;
#X obj 217 209 sig~;
#X obj 217 231 lop~ 64;
#X obj 272 213 -;
#X msg 272 190 1 \$1;
#X obj 61 394 outlet~;
#X text 57 25 RING MODULATOR;
#X text 58 43 \$1 = modulation frequency (Hz) \; \$2 = modulation amount
;
#X obj 217 164 clip 0 1;
#X obj 217 96 inlet amount;
#X obj 226 141 \$2;
#X obj 129 207 sig~ \$1;
#X obj 226 120 loadbang;
#N canvas 751 110 503 525 LICENCE 0;
#X text 63 55 Attribution 4 International (CC BY 4.0) This is a human-readable
summary of (and not a substitute for) the license. Disclaimer This
license is acceptable for Free Cultural Works.;
#X text 63 131 You are free to: Share - copy and redistribute the material
in any medium or format.;
#X text 63 181 Adapt - remix \, transform \, and build upon the material
for any purpose \, even commercially.;
#X text 63 231 The licensor cannot revoke these freedoms as long as
you follow the license terms. Under the following terms:;
#X text 63 281 Attribution - You must give appropriate credit \, provide
a link to the license \, and indicate if changes were made. You may
do so in any reasonable manner \, but not in any way that suggests
the licensor endorses you or your use.;
#X text 63 357 No additional restrictions - You may not apply legal
terms or technological measures that legally restrict others from doing
anything the license permits.;
#X text 63 420 Notices: You do not have to comply with the license
for elements of the material in the public domain or where your use
is permitted by an applicable exception or limitation. No warranties
are given. The license may not give you all of the permissions necessary
for your intended use. For example \, other rights such as publicity
\, privacy \, or moral rights may limit how you use the material.;
#X text 64 19 J.R.Dooley \, 2013;
#X restore 246 10 pd LICENCE;
#X connect 0 0 1 0;
#X connect 1 0 13 0;
#X connect 2 0 4 0;
#X connect 3 0 1 1;
#X connect 4 0 3 0;
#X connect 5 0 2 0;
#X connect 6 0 19 0;
#X connect 7 0 8 0;
#X connect 8 0 3 1;
#X connect 9 0 10 0;
#X connect 10 0 4 1;
#X connect 11 0 7 0;
#X connect 12 0 11 0;
#X connect 16 0 12 0;
#X connect 16 0 9 0;
#X connect 17 0 16 0;
#X connect 18 0 16 0;
#X connect 19 0 5 0;
#X connect 20 0 18 0;
