#N canvas 121 407 311 332 10;
#X obj 30 59 inlet~;
#X obj 29 260 outlet~;
#X obj 113 56 inlet;
#X obj 235 55 inlet;
#X obj 161 95 loadbang;
#X obj 235 139 f \$2;
#X obj 113 140 f \$1;
#X obj 161 117 t b b;
#N canvas 172 83 586 377 LICENSE-GPL 0;
#X text 57 88 This program is free software: you can redistribute it
and/or modify it under the terms of the GNU General Public License
as published by the Free Software Foundation \, either version 3 of
the License \, or (at your option) any later version.;
#X text 58 168 This program is distributed in the hope that it will
be useful \, but WITHOUT ANY WARRANTY \; without even the implied warranty
of MERCHANTABILITY or FITNESS FOR A PARTICULAR PURPOSE. See the GNU
General Public License for more details.;
#X text 57 261 You should have received a copy of the GNU General Public
License along with this program. If not \, see <http://www.gnu.org/licenses/>.
;
#X text 61 54 Copyright (C) 2009 \, Reality Jockey Ltd.;
#X text 60 325 See the file LICENSE.txt for the full license text.
;
#X restore 150 219 pd LICENSE-GPL;
#N canvas 1 58 903 639 lowpassq 0;
#N canvas 0 50 786 513 b0 0;
#X obj 101 245 outlet;
#X obj 424 96 r \$0-Q;
#X obj 320 95 r \$0-alpha;
#X obj 69 92 r \$0-w;
#X obj 232 94 r \$0-wsin;
#X msg 131 136 1 \$1;
#X obj 131 159 -;
#X obj 131 182 * 0.5;
#X obj 131 94 r \$0-wcos;
#X connect 5 0 6 0;
#X connect 6 0 7 0;
#X connect 7 0 0 0;
#X connect 8 0 5 0;
#X restore 167 444 pd b0;
#N canvas 0 50 786 513 b1 0;
#X obj 101 245 outlet;
#X obj 424 96 r \$0-Q;
#X obj 320 95 r \$0-alpha;
#X obj 69 92 r \$0-w;
#X obj 232 94 r \$0-wsin;
#X msg 131 136 1 \$1;
#X obj 131 159 -;
#X obj 131 94 r \$0-wcos;
#X connect 5 0 6 0;
#X connect 6 0 0 0;
#X connect 7 0 5 0;
#X restore 187 473 pd b1;
#N canvas 0 50 786 513 b2 0;
#X obj 101 245 outlet;
#X obj 424 96 r \$0-Q;
#X obj 320 95 r \$0-alpha;
#X obj 69 92 r \$0-w;
#X obj 232 94 r \$0-wsin;
#X msg 131 136 1 \$1;
#X obj 131 159 -;
#X obj 131 182 * 0.5;
#X obj 131 94 r \$0-wcos;
#X connect 5 0 6 0;
#X connect 6 0 7 0;
#X connect 7 0 0 0;
#X connect 8 0 5 0;
#X restore 208 497 pd b2;
#N canvas 234 94 786 513 a0 0;
#X obj 219 280 outlet;
#X obj 424 96 r \$0-Q;
#X obj 320 95 r \$0-alpha;
#X obj 69 92 r \$0-w;
#X obj 232 94 r \$0-wsin;
#X obj 320 138 + 1;
#X obj 131 94 r \$0-wcos;
#X connect 2 0 5 0;
#X connect 5 0 0 0;
#X restore 105 377 pd a0;
#N canvas 0 50 786 513 a1 0;
#X obj 101 245 outlet;
#X obj 424 96 r \$0-Q;
#X obj 320 95 r \$0-alpha;
#X obj 69 92 r \$0-w;
#X obj 232 94 r \$0-wsin;
#X obj 131 128 * -2;
#X obj 131 94 r \$0-wcos;
#X connect 5 0 0 0;
#X connect 6 0 5 0;
#X restore 126 398 pd a1;
#N canvas 0 50 786 513 a2 0;
#X obj 101 245 outlet;
#X obj 424 96 r \$0-Q;
#X obj 320 95 r \$0-alpha;
#X obj 69 92 r \$0-w;
#X obj 232 94 r \$0-wsin;
#X msg 320 140 1 \$1;
#X obj 320 164 -;
#X obj 131 94 r \$0-wcos;
#X connect 2 0 5 0;
#X connect 5 0 6 0;
#X connect 6 0 0 0;
#X restore 146 419 pd a2;
#N canvas 1 58 1060 735 biquad6 0;
#X obj 351 302 pack 0 0 0 0 0;
#X msg 351 327 fb1 fb2 ff1 ff2 ff3;
#X msg 625 327 p p z z z;
#X text 561 430 H = -----------------------------;
#X text 590 414 ff1 + ff2*z^(-1) + ff3*z^(-2);
#X text 591 450 1 - fb1*z^(-1) - fb2*z^(-2);
#X text 560 488 Audio-Cookbook:;
#X text 592 557 1 + (-a1/a0)*z^(-1) + (-a2/a0)*z^(-2);
#X text 562 537 H = -----------------------------------------;
#X obj 333 103 inlet;
#X obj 390 103 inlet;
#X obj 449 103 inlet;
#X obj 511 103 inlet;
#X obj 572 103 inlet;
#X obj 630 103 inlet;
#X text 333 80 a0;
#X text 390 80 a1;
#X text 449 80 a2;
#X text 511 80 b0;
#X text 572 80 b1;
#X text 630 80 b2;
#X text 591 524 (b0/a0) + (b1/a0)*z^(-1) + (b2/a0)*z^(-2);
#N canvas 0 50 450 300 /a0 0;
#X obj 88 49 inlet;
#X obj 88 164 outlet;
#X obj 88 137 / 1;
#X obj 127 69 inlet;
#X obj 88 106 swap 1;
#X connect 0 0 4 0;
#X connect 2 0 1 0;
#X connect 3 0 4 1;
#X connect 4 0 2 0;
#X connect 4 1 2 1;
#X restore 591 206 pd /a0;
#X obj 116 107 inlet;
#X obj 116 226 list;
#X obj 141 259 print biquad;
#X obj 116 201 b;
#X obj 116 289 outlet;
#X obj 116 154 route print bang;
#X obj 315 157 f;
#N canvas 0 50 450 300 /a0 0;
#X obj 88 49 inlet;
#X obj 88 164 outlet;
#X obj 88 137 / 1;
#X obj 127 69 inlet;
#X obj 88 106 swap 1;
#X connect 0 0 4 0;
#X connect 2 0 1 0;
#X connect 3 0 4 1;
#X connect 4 0 2 0;
#X connect 4 1 2 1;
#X restore 472 206 pd /a0;
#N canvas 0 50 450 300 /a0 0;
#X obj 88 49 inlet;
#X obj 88 164 outlet;
#X obj 88 137 / 1;
#X obj 127 69 inlet;
#X obj 88 106 swap 1;
#X connect 0 0 4 0;
#X connect 2 0 1 0;
#X connect 3 0 4 1;
#X connect 4 0 2 0;
#X connect 4 1 2 1;
#X restore 533 206 pd /a0;
#N canvas 0 50 450 300 /a0 0;
#X obj 88 49 inlet;
#X obj 88 164 outlet;
#X obj 88 137 / 1;
#X obj 127 69 inlet;
#X obj 88 106 swap 1;
#X connect 0 0 4 0;
#X connect 2 0 1 0;
#X connect 3 0 4 1;
#X connect 4 0 2 0;
#X connect 4 1 2 1;
#X restore 410 206 pd /a0;
#N canvas 1 58 450 300 /a0 0;
#X obj 88 49 inlet;
#X obj 88 164 outlet;
#X obj 88 137 / 1;
#X obj 127 69 inlet;
#X obj 88 106 swap 1;
#X connect 0 0 4 0;
#X connect 2 0 1 0;
#X connect 3 0 4 1;
#X connect 4 0 2 0;
#X connect 4 1 2 1;
#X restore 351 206 pd /a0;
#X obj 351 157 t a a a a a;
#X obj 283 132 t b b;
#X text 329 46 all coefficient inlets are cold inlets. Activate them
with a bang into first inlet.;
#X obj 351 247 * -1;
#X obj 410 247 * -1;
#X connect 0 0 24 1;
#X connect 9 0 29 1;
#X connect 10 0 33 1;
#X connect 11 0 32 1;
#X connect 12 0 30 1;
#X connect 13 0 31 1;
#X connect 14 0 22 1;
#X connect 22 0 0 4;
#X connect 23 0 28 0;
#X connect 24 0 27 0;
#X connect 26 0 24 0;
#X connect 28 0 26 0;
#X connect 28 1 35 0;
#X connect 29 0 34 0;
#X connect 30 0 0 2;
#X connect 31 0 0 3;
#X connect 32 0 38 0;
#X connect 33 0 37 0;
#X connect 34 0 33 0;
#X connect 34 1 32 0;
#X connect 34 2 30 0;
#X connect 34 3 31 0;
#X connect 34 4 22 0;
#X connect 35 0 26 0;
#X connect 35 1 29 0;
#X connect 37 0 0 0;
#X connect 38 0 0 1;
#X restore 85 541 pd biquad6 -------;
#X obj 668 262 hradio 15 1 0 2 empty empty bw/Q 0 -8 1 10 -262144 -1
-1 1;
#X floatatom 494 230 5 0 0 2 BW - -, f 5;
#X floatatom 602 256 5 0 0 2 Q - -, f 5;
#X floatatom 437 257 5 0 0 0 freq - -, f 5;
#X text 717 256 <(default: BW);
#X obj 602 276 t b a;
#X obj 493 249 t b a;
#X obj 668 285 t b a;
#X obj 525 282 * 0.01;
#X obj 437 342 f;
#X obj 85 579 outlet;
#X obj 84 85 inlet;
#X obj 363 39 loadbang;
#X obj 363 136 f \$1;
#X obj 569 164 f \$2;
#X obj 363 65 t b b b;
#X obj 147 85 inlet;
#X text 82 59 freq;
#N canvas 1 58 1185 531 compute-stuff 0;
#X obj 947 343 / 1;
#X obj 965 293 * 2;
#X obj 524 145 s \$0-Q;
#X obj 142 159 s \$0-w;
#X obj 947 386 s \$0-alpha;
#X obj 965 270 r \$0-Q;
#X obj 205 316 s \$0-wsin;
#X obj 947 238 r \$0-wsin;
#X obj 205 294 sin;
#X obj 118 295 cos;
#X obj 118 229 r \$0-w;
#X obj 205 232 r \$0-w;
#X obj 635 150 / 2;
#X obj 617 174 *;
#X obj 617 238 *;
#X obj 647 184 r \$0-w;
#X obj 653 244 r \$0-wsin;
#X obj 617 294 /;
#N canvas 217 313 450 300 sinh 0;
#X obj 88 37 inlet;
#X obj 88 87 t a a;
#X obj 88 223 outlet;
#X obj 120 116 * -1;
#X obj 120 136 exp;
#X obj 88 136 exp;
#X obj 88 174 -;
#X obj 88 199 * 0.5;
#X text 313 133 2;
#X text 272 105 exp(x) - exp(-x);
#X text 223 117 sinh = ----------------;
#X obj 88 64 f;
#X connect 0 0 11 0;
#X connect 1 0 5 0;
#X connect 1 1 3 0;
#X connect 3 0 4 0;
#X connect 4 0 6 1;
#X connect 5 0 6 0;
#X connect 6 0 7 0;
#X connect 7 0 2 0;
#X connect 11 0 1 0;
#X restore 617 335 pd sinh;
#X obj 617 369 *;
#X obj 617 65 r \$0-BW;
#X obj 617 422 s \$0-alpha;
#X obj 947 365 spigot 0;
#X obj 1000 341 tgl 15 0 empty empty empty 17 7 0 10 -262144 -1 -1
0 1;
#X obj 670 374 tgl 15 0 empty empty empty 17 7 0 10 -262144 -1 -1 0
1;
#X obj 635 130 log;
#X msg 635 109 2;
#X obj 635 87 loadbang;
#X obj 439 91 select 0;
#X obj 397 91 moses;
#X obj 273 101 select 0;
#X obj 231 101 moses;
#X obj 492 119 t b a;
#X obj 326 125 t b a;
#X obj 358 147 s \$0-BW;
#X obj 118 317 s \$0-wcos;
#N canvas 0 50 783 567 hz2rad 0;
#X obj 194 113 samplerate~;
#X obj 194 71 loadbang;
#X obj 194 185 atan;
#X msg 194 160 1;
#X text 405 68 w = 2 * pi * f / SR;
#X obj 194 207 * 8;
#X obj 194 137 t b a;
#X msg 205 90 bang;
#X obj 194 230 / 44100;
#X text 260 232 2 * pi / SR;
#X obj 119 269 *;
#X obj 119 35 inlet;
#X obj 119 298 outlet;
#X text 175 300 w(rad);
#X text 167 35 freq(Hz);
#X obj 285 35 r pd;
#X obj 285 55 route dsp;
#X obj 285 78 select 1;
#X connect 0 0 6 0;
#X connect 1 0 0 0;
#X connect 2 0 5 0;
#X connect 3 0 2 0;
#X connect 5 0 8 0;
#X connect 6 0 3 0;
#X connect 6 1 8 1;
#X connect 7 0 0 0;
#X connect 8 0 10 1;
#X connect 10 0 12 0;
#X connect 11 0 10 0;
#X connect 15 0 16 0;
#X connect 16 0 17 0;
#X connect 17 0 0 0;
#X restore 110 111 pd hz2rad;
#X obj 110 77 inlet;
#X text 108 56 frequency;
#X obj 397 68 inlet;
#X text 396 49 Q;
#X obj 231 78 inlet;
#X text 227 57 BW;
#X obj 786 74 inlet;
#X obj 786 102 select 0 1;
#X obj 786 169 unpack 0 0;
#X msg 786 136 1 0;
#X msg 819 136 0 1;
#X text 785 43 Bandwith or Q;
#X obj 617 398 spigot 1;
#X floatatom 552 459 8 0 0 0 - - -, f 8;
#X text 721 452 alpha = sin(w0)*sinh( ln(2)/2 * BW * w0/sin(w0) ) (case:
BW);
#X obj 205 267 spigot 1;
#X obj 110 132 t b a;
#X obj 965 317 t b a;
#X obj 653 267 t b a a;
#X obj 647 204 t b a;
#X obj 118 266 spigot 1;
#X connect 0 0 22 0;
#X connect 1 0 54 0;
#X connect 5 0 1 0;
#X connect 7 0 0 0;
#X connect 8 0 6 0;
#X connect 9 0 35 0;
#X connect 10 0 57 0;
#X connect 11 0 52 0;
#X connect 12 0 13 1;
#X connect 13 0 14 0;
#X connect 14 0 17 0;
#X connect 15 0 56 0;
#X connect 16 0 55 0;
#X connect 17 0 18 0;
#X connect 18 0 19 0;
#X connect 19 0 49 0;
#X connect 20 0 13 0;
#X connect 22 0 4 0;
#X connect 23 0 22 1;
#X connect 24 0 49 1;
#X connect 25 0 12 0;
#X connect 26 0 25 0;
#X connect 27 0 26 0;
#X connect 28 1 32 0;
#X connect 29 1 28 0;
#X connect 30 1 33 0;
#X connect 31 1 30 0;
#X connect 32 1 2 0;
#X connect 33 1 34 0;
#X connect 36 0 53 0;
#X connect 37 0 36 0;
#X connect 39 0 29 0;
#X connect 41 0 31 0;
#X connect 43 0 44 0;
#X connect 44 0 46 0;
#X connect 44 1 47 0;
#X connect 45 0 24 0;
#X connect 45 1 23 0;
#X connect 46 0 45 0;
#X connect 47 0 45 0;
#X connect 49 0 21 0;
#X connect 49 0 50 0;
#X connect 52 0 8 0;
#X connect 53 1 3 0;
#X connect 54 0 0 0;
#X connect 54 1 0 1;
#X connect 55 0 17 0;
#X connect 55 1 17 1;
#X connect 55 2 19 1;
#X connect 56 0 14 0;
#X connect 56 1 14 1;
#X connect 57 0 9 0;
#X restore 437 377 pd compute-stuff;
#X obj 84 116 t b a;
#X obj 147 119 t b a;
#X msg 651 173 1;
#X text 147 61 Q;
#N canvas 172 83 586 377 LICENSE-GPL 0;
#X text 57 88 This program is free software: you can redistribute it
and/or modify it under the terms of the GNU General Public License
as published by the Free Software Foundation \, either version 3 of
the License \, or (at your option) any later version.;
#X text 58 168 This program is distributed in the hope that it will
be useful \, but WITHOUT ANY WARRANTY \; without even the implied warranty
of MERCHANTABILITY or FITNESS FOR A PARTICULAR PURPOSE. See the GNU
General Public License for more details.;
#X text 57 261 You should have received a copy of the GNU General Public
License along with this program. If not \, see <http://www.gnu.org/licenses/>.
;
#X text 61 54 Copyright (C) 2009 \, Reality Jockey Ltd.;
#X text 60 325 See the file LICENSE.txt for the full license text.
;
#X restore 522 59 pd LICENSE-GPL;
#X connect 0 0 6 4;
#X connect 1 0 6 5;
#X connect 2 0 6 6;
#X connect 3 0 6 1;
#X connect 4 0 6 2;
#X connect 5 0 6 3;
#X connect 6 0 17 0;
#X connect 7 0 14 0;
#X connect 8 0 13 0;
#X connect 9 0 12 0;
#X connect 10 0 16 0;
#X connect 12 0 16 0;
#X connect 12 1 25 2;
#X connect 13 0 16 0;
#X connect 13 1 15 0;
#X connect 14 0 16 0;
#X connect 14 1 25 3;
#X connect 15 0 25 1;
#X connect 16 0 25 0;
#X connect 18 0 26 0;
#X connect 19 0 22 0;
#X connect 20 0 16 0;
#X connect 21 0 12 0;
#X connect 22 0 20 0;
#X connect 22 1 21 0;
#X connect 22 2 28 0;
#X connect 23 0 27 0;
#X connect 26 0 6 0;
#X connect 26 1 16 0;
#X connect 27 0 6 0;
#X connect 27 1 12 0;
#X connect 28 0 7 0;
#X restore 113 171 pd lowpassq;
#N canvas 1 58 646 414 beequad 0;
#X obj 66 106 inlet~;
#X obj 67 367 outlet~;
#X obj 260 110 inlet;
#N canvas 384 84 641 728 zeros 0;
#X obj 208 103 unpack 0 0 0 0 0;
#N canvas 0 50 260 222 s 0;
#X obj 66 145 outlet~;
#X obj 66 21 inlet;
#X obj 66 100 line~;
#X obj 66 66 pack 0 10;
#X obj 126 22 r \$0-interp;
#X connect 1 0 3 0;
#X connect 2 0 0 0;
#X connect 3 0 2 0;
#X connect 4 0 3 1;
#X restore 336 447 pd s;
#N canvas 0 50 260 222 s 0;
#X obj 66 145 outlet~;
#X obj 66 21 inlet;
#X obj 66 100 line~;
#X obj 66 66 pack 0 10;
#X obj 126 22 r \$0-interp;
#X connect 1 0 3 0;
#X connect 2 0 0 0;
#X connect 3 0 2 0;
#X connect 4 0 3 1;
#X restore 311 415 pd s;
#N canvas 0 50 260 222 s 0;
#X obj 66 145 outlet~;
#X obj 66 21 inlet;
#X obj 66 100 line~;
#X obj 66 66 pack 0 10;
#X obj 126 22 r \$0-interp;
#X connect 1 0 3 0;
#X connect 2 0 0 0;
#X connect 3 0 2 0;
#X connect 4 0 3 1;
#X restore 286 391 pd s;
#N canvas 0 50 260 222 s 0;
#X obj 66 145 outlet~;
#X obj 66 21 inlet;
#X obj 66 100 line~;
#X obj 66 66 pack 0 10;
#X obj 126 22 r \$0-interp;
#X connect 1 0 3 0;
#X connect 2 0 0 0;
#X connect 3 0 2 0;
#X connect 4 0 3 1;
#X restore 262 369 pd s;
#X obj 142 499 czero~;
#X obj 141 540 czero~;
#N canvas 0 50 383 335 -$f2/2/$f1 0;
#X obj 94 82 inlet;
#X obj 146 81 inlet;
#X obj 94 212 outlet;
#X obj 94 183 / 1;
#X obj 146 121 / -2;
#X obj 94 159 swap;
#X connect 0 0 5 0;
#X connect 1 0 4 0;
#X connect 3 0 2 0;
#X connect 4 0 5 1;
#X connect 5 0 3 0;
#X connect 5 1 3 1;
#X restore 262 178 pd -$f2/2/$f1;
#N canvas 395 415 540 402 ($f2*$f2 0;
#X obj 50 59 inlet;
#X obj 144 60 inlet;
#X obj 221 57 inlet;
#X obj 68 190 f;
#X obj 50 214 *;
#X obj 50 245 * -4;
#X obj 50 307 +;
#X obj 50 336 outlet;
#X text 239 255 expr ($f2*$f2 - 4*$f1*$f3);
#X obj 84 309 *;
#X obj 84 288 t a a;
#X obj 50 84 t a b b;
#X obj 126 190 f;
#X connect 0 0 11 0;
#X connect 1 0 12 1;
#X connect 2 0 3 1;
#X connect 3 0 4 1;
#X connect 4 0 5 0;
#X connect 5 0 6 0;
#X connect 6 0 7 0;
#X connect 9 0 6 1;
#X connect 10 0 9 0;
#X connect 10 1 9 1;
#X connect 11 0 4 0;
#X connect 11 1 3 0;
#X connect 11 2 12 0;
#X connect 12 0 10 0;
#X restore 298 220 pd ($f2*$f2 - 4*$f1*$f3);
#X obj 299 241 t a a;
#N canvas 73 329 600 513 sqrt(abs($f1)) 0;
#X obj 53 71 inlet;
#X obj 53 178 outlet;
#X obj 53 127 sqrt;
#X obj 53 105 abs;
#X obj 53 153 * 0.5;
#X text 242 282 expr sqrt(abs(x)) / 2;
#X connect 0 0 3 0;
#X connect 2 0 4 0;
#X connect 3 0 2 0;
#X connect 4 0 1 0;
#X restore 337 274 pd sqrt(abs($f1)) / 2;
#X obj 337 312 / 1;
#X obj 298 198 t a a;
#X obj 262 154 t a a;
#X obj 208 80 inlet;
#X obj 141 79 inlet~;
#X obj 142 594 outlet~;
#X obj 179 567 outlet~;
#X floatatom 448 396 5 0 0 0 - - -, f 5;
#X floatatom 490 397 5 0 0 0 - - -, f 5;
#X floatatom 358 394 5 0 0 0 - - -, f 5;
#X floatatom 400 395 5 0 0 0 - - -, f 5;
#N canvas 186 151 803 565 location 0;
#X obj 58 51 inlet;
#X obj 152 45 inlet;
#X obj 276 38 inlet;
#X obj 58 435 outlet;
#X obj 174 431 outlet;
#X obj 250 431 outlet;
#X obj 304 431 outlet;
#X obj 134 168 t a a;
#X obj 134 193 >;
#X obj 166 194 <;
#X obj 134 243 *;
#X text 164 247 ($f2 > 0)*$f3;
#X obj 134 274 t a a;
#X obj 58 406 +;
#X obj 250 405 -;
#X text 306 247 ($f2 < 0)*$f3;
#X obj 272 246 *;
#X obj 272 277 t a a;
#X obj 258 156 t a a;
#X obj 304 407 * -1;
#X text 518 254 expr $f1 + ($f2 > 0)*$f3 \; ($f2 < 0)*$f3 \; $f1 -
($f2 > 0)*$f3 \; ($f2 < 0)*-1*$f3;
#X obj 58 78 t a b b;
#X obj 58 274 t a a;
#X obj 134 144 f;
#X obj 258 134 f;
#X connect 0 0 21 0;
#X connect 1 0 23 1;
#X connect 2 0 24 1;
#X connect 7 0 8 0;
#X connect 7 1 9 0;
#X connect 8 0 10 0;
#X connect 9 0 16 0;
#X connect 10 0 12 0;
#X connect 12 0 13 1;
#X connect 12 1 14 1;
#X connect 13 0 3 0;
#X connect 14 0 5 0;
#X connect 16 0 17 0;
#X connect 17 0 4 0;
#X connect 17 1 19 0;
#X connect 18 0 10 1;
#X connect 18 1 16 1;
#X connect 19 0 6 0;
#X connect 21 0 22 0;
#X connect 21 1 23 0;
#X connect 21 2 24 0;
#X connect 22 0 13 0;
#X connect 22 1 14 0;
#X connect 23 0 7 0;
#X connect 24 0 18 0;
#X restore 262 338 pd location;
#X obj 58 456 r \$0-clear;
#X connect 0 2 13 0;
#X connect 0 3 8 1;
#X connect 0 3 7 1;
#X connect 0 4 8 2;
#X connect 1 0 6 3;
#X connect 2 0 6 2;
#X connect 3 0 5 3;
#X connect 4 0 5 2;
#X connect 5 0 6 0;
#X connect 5 1 6 1;
#X connect 6 0 16 0;
#X connect 6 1 17 0;
#X connect 7 0 22 0;
#X connect 8 0 9 0;
#X connect 9 0 22 1;
#X connect 9 1 10 0;
#X connect 10 0 11 0;
#X connect 11 0 22 2;
#X connect 12 0 8 0;
#X connect 12 1 11 1;
#X connect 13 0 7 0;
#X connect 13 1 12 0;
#X connect 14 0 0 0;
#X connect 15 0 5 0;
#X connect 22 0 4 0;
#X connect 22 0 20 0;
#X connect 22 1 3 0;
#X connect 22 1 21 0;
#X connect 22 2 2 0;
#X connect 22 2 18 0;
#X connect 22 3 1 0;
#X connect 22 3 19 0;
#X connect 23 0 5 0;
#X connect 23 0 6 0;
#X restore 67 279 pd zeros;
#N canvas 317 129 674 686 poles 0;
#X obj 159 442 cpole~;
#X obj 158 483 cpole~;
#X obj 259 110 unpack 0 0 0 0 0;
#X obj 158 540 outlet~;
#X obj 259 59 inlet;
#X obj 259 180 / 2;
#N canvas 71 334 600 513 $f1*$f1 0;
#X obj 53 71 inlet;
#X obj 129 73 inlet;
#X obj 53 368 outlet;
#X obj 129 202 t b a;
#X obj 53 266 +;
#X obj 129 167 * 4;
#X obj 53 191 t a a;
#X obj 53 214 *;
#X text 244 281 expr $f1*$f1 + 4*$f2;
#X connect 0 0 6 0;
#X connect 1 0 5 0;
#X connect 3 0 4 0;
#X connect 3 1 4 1;
#X connect 4 0 2 0;
#X connect 5 0 3 0;
#X connect 6 0 7 0;
#X connect 6 1 7 1;
#X connect 7 0 4 0;
#X restore 296 203 pd $f1*$f1 + 4*$f2;
#X obj 296 229 t a a;
#N canvas 71 334 600 513 sqrt(abs($f1)) 0;
#X obj 53 71 inlet;
#X obj 53 178 outlet;
#X obj 53 127 sqrt;
#X obj 53 105 abs;
#X obj 53 153 * 0.5;
#X text 242 282 expr sqrt(abs(x)) / 2;
#X connect 0 0 3 0;
#X connect 2 0 4 0;
#X connect 3 0 2 0;
#X connect 4 0 1 0;
#X restore 328 262 pd sqrt(abs($f1)) / 2;
#X obj 259 155 t a a;
#N canvas 0 50 260 222 s 0;
#X obj 66 145 outlet~;
#X obj 66 21 inlet;
#X obj 66 100 line~;
#X obj 66 66 pack 0 10;
#X obj 126 22 r \$0-interp;
#X connect 1 0 3 0;
#X connect 2 0 0 0;
#X connect 3 0 2 0;
#X connect 4 0 3 1;
#X restore 333 410 pd s;
#N canvas 0 50 260 222 s 0;
#X obj 66 145 outlet~;
#X obj 66 21 inlet;
#X obj 66 100 line~;
#X obj 66 66 pack 0 10;
#X obj 126 22 r \$0-interp;
#X connect 1 0 3 0;
#X connect 2 0 0 0;
#X connect 3 0 2 0;
#X connect 4 0 3 1;
#X restore 308 378 pd s;
#N canvas 0 50 260 222 s 0;
#X obj 66 145 outlet~;
#X obj 66 21 inlet;
#X obj 66 100 line~;
#X obj 66 66 pack 0 10;
#X obj 126 22 r \$0-interp;
#X connect 1 0 3 0;
#X connect 2 0 0 0;
#X connect 3 0 2 0;
#X connect 4 0 3 1;
#X restore 283 354 pd s;
#N canvas 1 85 260 222 s 0;
#X obj 66 145 outlet~;
#X obj 66 21 inlet;
#X obj 66 100 line~;
#X obj 66 66 pack 0 10;
#X obj 126 22 r \$0-interp;
#X connect 1 0 3 0;
#X connect 2 0 0 0;
#X connect 3 0 2 0;
#X connect 4 0 3 1;
#X restore 259 332 pd s;
#X obj 159 60 inlet~;
#X obj 209 60 inlet~;
#X floatatom 450 362 5 0 0 0 - - -, f 5;
#X floatatom 492 363 5 0 0 0 - - -, f 5;
#X floatatom 360 360 5 0 0 0 - - -, f 5;
#X floatatom 402 361 5 0 0 0 - - -, f 5;
#N canvas 184 156 803 565 location 0;
#X obj 58 51 inlet;
#X obj 152 45 inlet;
#X obj 276 38 inlet;
#X obj 58 435 outlet;
#X obj 174 431 outlet;
#X obj 250 431 outlet;
#X obj 304 431 outlet;
#X obj 134 168 t a a;
#X obj 134 193 >;
#X obj 166 194 <;
#X obj 134 243 *;
#X text 164 247 ($f2 > 0)*$f3;
#X obj 134 274 t a a;
#X obj 58 406 +;
#X obj 250 405 -;
#X text 306 247 ($f2 < 0)*$f3;
#X obj 272 246 *;
#X obj 272 277 t a a;
#X obj 258 156 t a a;
#X obj 304 407 * -1;
#X text 518 254 expr $f1 + ($f2 > 0)*$f3 \; ($f2 < 0)*$f3 \; $f1 -
($f2 > 0)*$f3 \; ($f2 < 0)*-1*$f3;
#X obj 58 78 t a b b;
#X obj 58 274 t a a;
#X obj 134 144 f;
#X obj 258 134 f;
#X connect 0 0 21 0;
#X connect 1 0 23 1;
#X connect 2 0 24 1;
#X connect 7 0 8 0;
#X connect 7 1 9 0;
#X connect 8 0 10 0;
#X connect 9 0 16 0;
#X connect 10 0 12 0;
#X connect 12 0 13 1;
#X connect 12 1 14 1;
#X connect 13 0 3 0;
#X connect 14 0 5 0;
#X connect 16 0 17 0;
#X connect 17 0 4 0;
#X connect 17 1 19 0;
#X connect 18 0 10 1;
#X connect 18 1 16 1;
#X connect 19 0 6 0;
#X connect 21 0 22 0;
#X connect 21 1 23 0;
#X connect 21 2 24 0;
#X connect 22 0 13 0;
#X connect 22 1 14 0;
#X connect 23 0 7 0;
#X connect 24 0 18 0;
#X restore 259 301 pd location;
#X obj 67 393 r \$0-clear;
#X connect 0 0 1 0;
#X connect 0 1 1 1;
#X connect 1 0 3 0;
#X connect 2 0 9 0;
#X connect 2 1 6 1;
#X connect 4 0 2 0;
#X connect 5 0 20 0;
#X connect 6 0 7 0;
#X connect 7 0 20 1;
#X connect 7 1 8 0;
#X connect 8 0 20 2;
#X connect 9 0 5 0;
#X connect 9 1 6 0;
#X connect 10 0 1 3;
#X connect 11 0 1 2;
#X connect 12 0 0 3;
#X connect 13 0 0 2;
#X connect 14 0 0 0;
#X connect 15 0 0 1;
#X connect 20 0 13 0;
#X connect 20 0 18 0;
#X connect 20 1 12 0;
#X connect 20 1 19 0;
#X connect 20 2 11 0;
#X connect 20 2 16 0;
#X connect 20 3 10 0;
#X connect 20 3 17 0;
#X connect 21 0 0 0;
#X connect 21 0 1 0;
#X restore 66 321 pd poles;
#X text 417 85 beequad-v3;
#X text 112 61 A [biquad~] clone with czero/cpole;
#X obj 67 232 *~;
#N canvas 1 85 260 222 s 0;
#X obj 66 145 outlet~;
#X obj 66 21 inlet;
#X obj 66 100 line~;
#X obj 66 66 pack 0 10;
#X obj 126 22 r \$0-interp;
#X connect 1 0 3 0;
#X connect 2 0 0 0;
#X connect 3 0 2 0;
#X connect 4 0 3 1;
#X restore 100 233 pd s;
#X msg 100 213 \$3;
#X obj 260 264 s \$0-interp;
#X obj 260 149 route interp clear;
#X msg 321 216 clear;
#X obj 321 239 s \$0-clear;
#N canvas 172 83 586 377 LICENSE-GPL 0;
#X text 57 88 This program is free software: you can redistribute it
and/or modify it under the terms of the GNU General Public License
as published by the Free Software Foundation \, either version 3 of
the License \, or (at your option) any later version.;
#X text 58 168 This program is distributed in the hope that it will
be useful \, but WITHOUT ANY WARRANTY \; without even the implied warranty
of MERCHANTABILITY or FITNESS FOR A PARTICULAR PURPOSE. See the GNU
General Public License for more details.;
#X text 57 261 You should have received a copy of the GNU General Public
License along with this program. If not \, see <http://www.gnu.org/licenses/>.
;
#X text 61 54 Copyright (C) 2009 \, Reality Jockey Ltd.;
#X text 60 325 See the file LICENSE.txt for the full license text.
;
#X restore 522 59 pd LICENSE-GPL;
#X connect 0 0 7 0;
#X connect 2 0 11 0;
#X connect 3 0 4 0;
#X connect 3 1 4 1;
#X connect 4 0 1 0;
#X connect 7 0 3 0;
#X connect 8 0 7 1;
#X connect 9 0 8 0;
#X connect 11 0 10 0;
#X connect 11 1 12 0;
#X connect 11 2 9 0;
#X connect 11 2 3 1;
#X connect 11 2 4 2;
#X connect 12 0 13 0;
#X restore 30 205 pd beequad;
#N canvas 1 58 646 414 beequad 0;
#X obj 66 106 inlet~;
#X obj 67 367 outlet~;
#X obj 260 110 inlet;
#N canvas 384 84 641 728 zeros 0;
#X obj 208 103 unpack 0 0 0 0 0;
#N canvas 0 50 260 222 s 0;
#X obj 66 145 outlet~;
#X obj 66 21 inlet;
#X obj 66 100 line~;
#X obj 66 66 pack 0 10;
#X obj 126 22 r \$0-interp;
#X connect 1 0 3 0;
#X connect 2 0 0 0;
#X connect 3 0 2 0;
#X connect 4 0 3 1;
#X restore 336 447 pd s;
#N canvas 0 50 260 222 s 0;
#X obj 66 145 outlet~;
#X obj 66 21 inlet;
#X obj 66 100 line~;
#X obj 66 66 pack 0 10;
#X obj 126 22 r \$0-interp;
#X connect 1 0 3 0;
#X connect 2 0 0 0;
#X connect 3 0 2 0;
#X connect 4 0 3 1;
#X restore 311 415 pd s;
#N canvas 0 50 260 222 s 0;
#X obj 66 145 outlet~;
#X obj 66 21 inlet;
#X obj 66 100 line~;
#X obj 66 66 pack 0 10;
#X obj 126 22 r \$0-interp;
#X connect 1 0 3 0;
#X connect 2 0 0 0;
#X connect 3 0 2 0;
#X connect 4 0 3 1;
#X restore 286 391 pd s;
#N canvas 0 50 260 222 s 0;
#X obj 66 145 outlet~;
#X obj 66 21 inlet;
#X obj 66 100 line~;
#X obj 66 66 pack 0 10;
#X obj 126 22 r \$0-interp;
#X connect 1 0 3 0;
#X connect 2 0 0 0;
#X connect 3 0 2 0;
#X connect 4 0 3 1;
#X restore 262 369 pd s;
#X obj 142 499 czero~;
#X obj 141 540 czero~;
#N canvas 0 50 383 335 -$f2/2/$f1 0;
#X obj 94 82 inlet;
#X obj 146 81 inlet;
#X obj 94 212 outlet;
#X obj 94 183 / 1;
#X obj 146 121 / -2;
#X obj 94 159 swap;
#X connect 0 0 5 0;
#X connect 1 0 4 0;
#X connect 3 0 2 0;
#X connect 4 0 5 1;
#X connect 5 0 3 0;
#X connect 5 1 3 1;
#X restore 262 178 pd -$f2/2/$f1;
#N canvas 395 415 540 402 ($f2*$f2 0;
#X obj 50 59 inlet;
#X obj 144 60 inlet;
#X obj 221 57 inlet;
#X obj 68 190 f;
#X obj 50 214 *;
#X obj 50 245 * -4;
#X obj 50 307 +;
#X obj 50 336 outlet;
#X text 239 255 expr ($f2*$f2 - 4*$f1*$f3);
#X obj 84 309 *;
#X obj 84 288 t a a;
#X obj 50 84 t a b b;
#X obj 126 190 f;
#X connect 0 0 11 0;
#X connect 1 0 12 1;
#X connect 2 0 3 1;
#X connect 3 0 4 1;
#X connect 4 0 5 0;
#X connect 5 0 6 0;
#X connect 6 0 7 0;
#X connect 9 0 6 1;
#X connect 10 0 9 0;
#X connect 10 1 9 1;
#X connect 11 0 4 0;
#X connect 11 1 3 0;
#X connect 11 2 12 0;
#X connect 12 0 10 0;
#X restore 298 220 pd ($f2*$f2 - 4*$f1*$f3);
#X obj 299 241 t a a;
#N canvas 73 329 600 513 sqrt(abs($f1)) 0;
#X obj 53 71 inlet;
#X obj 53 178 outlet;
#X obj 53 127 sqrt;
#X obj 53 105 abs;
#X obj 53 153 * 0.5;
#X text 242 282 expr sqrt(abs(x)) / 2;
#X connect 0 0 3 0;
#X connect 2 0 4 0;
#X connect 3 0 2 0;
#X connect 4 0 1 0;
#X restore 337 274 pd sqrt(abs($f1)) / 2;
#X obj 337 312 / 1;
#X obj 298 198 t a a;
#X obj 262 154 t a a;
#X obj 208 80 inlet;
#X obj 141 79 inlet~;
#X obj 142 594 outlet~;
#X obj 179 567 outlet~;
#X floatatom 448 396 5 0 0 0 - - -, f 5;
#X floatatom 490 397 5 0 0 0 - - -, f 5;
#X floatatom 358 394 5 0 0 0 - - -, f 5;
#X floatatom 400 395 5 0 0 0 - - -, f 5;
#N canvas 186 151 803 565 location 0;
#X obj 58 51 inlet;
#X obj 152 45 inlet;
#X obj 276 38 inlet;
#X obj 58 435 outlet;
#X obj 174 431 outlet;
#X obj 250 431 outlet;
#X obj 304 431 outlet;
#X obj 134 168 t a a;
#X obj 134 193 >;
#X obj 166 194 <;
#X obj 134 243 *;
#X text 164 247 ($f2 > 0)*$f3;
#X obj 134 274 t a a;
#X obj 58 406 +;
#X obj 250 405 -;
#X text 306 247 ($f2 < 0)*$f3;
#X obj 272 246 *;
#X obj 272 277 t a a;
#X obj 258 156 t a a;
#X obj 304 407 * -1;
#X text 518 254 expr $f1 + ($f2 > 0)*$f3 \; ($f2 < 0)*$f3 \; $f1 -
($f2 > 0)*$f3 \; ($f2 < 0)*-1*$f3;
#X obj 58 78 t a b b;
#X obj 58 274 t a a;
#X obj 134 144 f;
#X obj 258 134 f;
#X connect 0 0 21 0;
#X connect 1 0 23 1;
#X connect 2 0 24 1;
#X connect 7 0 8 0;
#X connect 7 1 9 0;
#X connect 8 0 10 0;
#X connect 9 0 16 0;
#X connect 10 0 12 0;
#X connect 12 0 13 1;
#X connect 12 1 14 1;
#X connect 13 0 3 0;
#X connect 14 0 5 0;
#X connect 16 0 17 0;
#X connect 17 0 4 0;
#X connect 17 1 19 0;
#X connect 18 0 10 1;
#X connect 18 1 16 1;
#X connect 19 0 6 0;
#X connect 21 0 22 0;
#X connect 21 1 23 0;
#X connect 21 2 24 0;
#X connect 22 0 13 0;
#X connect 22 1 14 0;
#X connect 23 0 7 0;
#X connect 24 0 18 0;
#X restore 262 338 pd location;
#X obj 58 456 r \$0-clear;
#X connect 0 2 13 0;
#X connect 0 3 8 1;
#X connect 0 3 7 1;
#X connect 0 4 8 2;
#X connect 1 0 6 3;
#X connect 2 0 6 2;
#X connect 3 0 5 3;
#X connect 4 0 5 2;
#X connect 5 0 6 0;
#X connect 5 1 6 1;
#X connect 6 0 16 0;
#X connect 6 1 17 0;
#X connect 7 0 22 0;
#X connect 8 0 9 0;
#X connect 9 0 22 1;
#X connect 9 1 10 0;
#X connect 10 0 11 0;
#X connect 11 0 22 2;
#X connect 12 0 8 0;
#X connect 12 1 11 1;
#X connect 13 0 7 0;
#X connect 13 1 12 0;
#X connect 14 0 0 0;
#X connect 15 0 5 0;
#X connect 22 0 4 0;
#X connect 22 0 20 0;
#X connect 22 1 3 0;
#X connect 22 1 21 0;
#X connect 22 2 2 0;
#X connect 22 2 18 0;
#X connect 22 3 1 0;
#X connect 22 3 19 0;
#X connect 23 0 5 0;
#X connect 23 0 6 0;
#X restore 67 279 pd zeros;
#N canvas 317 129 674 686 poles 0;
#X obj 159 442 cpole~;
#X obj 158 483 cpole~;
#X obj 259 110 unpack 0 0 0 0 0;
#X obj 158 540 outlet~;
#X obj 259 59 inlet;
#X obj 259 180 / 2;
#N canvas 71 334 600 513 $f1*$f1 0;
#X obj 53 71 inlet;
#X obj 129 73 inlet;
#X obj 53 368 outlet;
#X obj 129 202 t b a;
#X obj 53 266 +;
#X obj 129 167 * 4;
#X obj 53 191 t a a;
#X obj 53 214 *;
#X text 244 281 expr $f1*$f1 + 4*$f2;
#X connect 0 0 6 0;
#X connect 1 0 5 0;
#X connect 3 0 4 0;
#X connect 3 1 4 1;
#X connect 4 0 2 0;
#X connect 5 0 3 0;
#X connect 6 0 7 0;
#X connect 6 1 7 1;
#X connect 7 0 4 0;
#X restore 296 203 pd $f1*$f1 + 4*$f2;
#X obj 296 229 t a a;
#N canvas 71 334 600 513 sqrt(abs($f1)) 0;
#X obj 53 71 inlet;
#X obj 53 178 outlet;
#X obj 53 127 sqrt;
#X obj 53 105 abs;
#X obj 53 153 * 0.5;
#X text 242 282 expr sqrt(abs(x)) / 2;
#X connect 0 0 3 0;
#X connect 2 0 4 0;
#X connect 3 0 2 0;
#X connect 4 0 1 0;
#X restore 328 262 pd sqrt(abs($f1)) / 2;
#X obj 259 155 t a a;
#N canvas 0 50 260 222 s 0;
#X obj 66 145 outlet~;
#X obj 66 21 inlet;
#X obj 66 100 line~;
#X obj 66 66 pack 0 10;
#X obj 126 22 r \$0-interp;
#X connect 1 0 3 0;
#X connect 2 0 0 0;
#X connect 3 0 2 0;
#X connect 4 0 3 1;
#X restore 333 410 pd s;
#N canvas 0 50 260 222 s 0;
#X obj 66 145 outlet~;
#X obj 66 21 inlet;
#X obj 66 100 line~;
#X obj 66 66 pack 0 10;
#X obj 126 22 r \$0-interp;
#X connect 1 0 3 0;
#X connect 2 0 0 0;
#X connect 3 0 2 0;
#X connect 4 0 3 1;
#X restore 308 378 pd s;
#N canvas 0 50 260 222 s 0;
#X obj 66 145 outlet~;
#X obj 66 21 inlet;
#X obj 66 100 line~;
#X obj 66 66 pack 0 10;
#X obj 126 22 r \$0-interp;
#X connect 1 0 3 0;
#X connect 2 0 0 0;
#X connect 3 0 2 0;
#X connect 4 0 3 1;
#X restore 283 354 pd s;
#N canvas 1 85 260 222 s 0;
#X obj 66 145 outlet~;
#X obj 66 21 inlet;
#X obj 66 100 line~;
#X obj 66 66 pack 0 10;
#X obj 126 22 r \$0-interp;
#X connect 1 0 3 0;
#X connect 2 0 0 0;
#X connect 3 0 2 0;
#X connect 4 0 3 1;
#X restore 259 332 pd s;
#X obj 159 60 inlet~;
#X obj 209 60 inlet~;
#X floatatom 450 362 5 0 0 0 - - -, f 5;
#X floatatom 492 363 5 0 0 0 - - -, f 5;
#X floatatom 360 360 5 0 0 0 - - -, f 5;
#X floatatom 402 361 5 0 0 0 - - -, f 5;
#N canvas 184 156 803 565 location 0;
#X obj 58 51 inlet;
#X obj 152 45 inlet;
#X obj 276 38 inlet;
#X obj 58 435 outlet;
#X obj 174 431 outlet;
#X obj 250 431 outlet;
#X obj 304 431 outlet;
#X obj 134 168 t a a;
#X obj 134 193 >;
#X obj 166 194 <;
#X obj 134 243 *;
#X text 164 247 ($f2 > 0)*$f3;
#X obj 134 274 t a a;
#X obj 58 406 +;
#X obj 250 405 -;
#X text 306 247 ($f2 < 0)*$f3;
#X obj 272 246 *;
#X obj 272 277 t a a;
#X obj 258 156 t a a;
#X obj 304 407 * -1;
#X text 518 254 expr $f1 + ($f2 > 0)*$f3 \; ($f2 < 0)*$f3 \; $f1 -
($f2 > 0)*$f3 \; ($f2 < 0)*-1*$f3;
#X obj 58 78 t a b b;
#X obj 58 274 t a a;
#X obj 134 144 f;
#X obj 258 134 f;
#X connect 0 0 21 0;
#X connect 1 0 23 1;
#X connect 2 0 24 1;
#X connect 7 0 8 0;
#X connect 7 1 9 0;
#X connect 8 0 10 0;
#X connect 9 0 16 0;
#X connect 10 0 12 0;
#X connect 12 0 13 1;
#X connect 12 1 14 1;
#X connect 13 0 3 0;
#X connect 14 0 5 0;
#X connect 16 0 17 0;
#X connect 17 0 4 0;
#X connect 17 1 19 0;
#X connect 18 0 10 1;
#X connect 18 1 16 1;
#X connect 19 0 6 0;
#X connect 21 0 22 0;
#X connect 21 1 23 0;
#X connect 21 2 24 0;
#X connect 22 0 13 0;
#X connect 22 1 14 0;
#X connect 23 0 7 0;
#X connect 24 0 18 0;
#X restore 259 301 pd location;
#X obj 67 393 r \$0-clear;
#X connect 0 0 1 0;
#X connect 0 1 1 1;
#X connect 1 0 3 0;
#X connect 2 0 9 0;
#X connect 2 1 6 1;
#X connect 4 0 2 0;
#X connect 5 0 20 0;
#X connect 6 0 7 0;
#X connect 7 0 20 1;
#X connect 7 1 8 0;
#X connect 8 0 20 2;
#X connect 9 0 5 0;
#X connect 9 1 6 0;
#X connect 10 0 1 3;
#X connect 11 0 1 2;
#X connect 12 0 0 3;
#X connect 13 0 0 2;
#X connect 14 0 0 0;
#X connect 15 0 0 1;
#X connect 20 0 13 0;
#X connect 20 0 18 0;
#X connect 20 1 12 0;
#X connect 20 1 19 0;
#X connect 20 2 11 0;
#X connect 20 2 16 0;
#X connect 20 3 10 0;
#X connect 20 3 17 0;
#X connect 21 0 0 0;
#X connect 21 0 1 0;
#X restore 66 321 pd poles;
#X text 417 85 beequad-v3;
#X text 112 61 A [biquad~] clone with czero/cpole;
#X obj 67 232 *~;
#N canvas 1 85 260 222 s 0;
#X obj 66 145 outlet~;
#X obj 66 21 inlet;
#X obj 66 100 line~;
#X obj 66 66 pack 0 10;
#X obj 126 22 r \$0-interp;
#X connect 1 0 3 0;
#X connect 2 0 0 0;
#X connect 3 0 2 0;
#X connect 4 0 3 1;
#X restore 100 233 pd s;
#X msg 100 213 \$3;
#X obj 260 264 s \$0-interp;
#X obj 260 149 route interp clear;
#X msg 321 216 clear;
#X obj 321 239 s \$0-clear;
#N canvas 172 83 586 377 LICENSE-GPL 0;
#X text 57 88 This program is free software: you can redistribute it
and/or modify it under the terms of the GNU General Public License
as published by the Free Software Foundation \, either version 3 of
the License \, or (at your option) any later version.;
#X text 58 168 This program is distributed in the hope that it will
be useful \, but WITHOUT ANY WARRANTY \; without even the implied warranty
of MERCHANTABILITY or FITNESS FOR A PARTICULAR PURPOSE. See the GNU
General Public License for more details.;
#X text 57 261 You should have received a copy of the GNU General Public
License along with this program. If not \, see <http://www.gnu.org/licenses/>.
;
#X text 61 54 Copyright (C) 2009 \, Reality Jockey Ltd.;
#X text 60 325 See the file LICENSE.txt for the full license text.
;
#X restore 522 59 pd LICENSE-GPL;
#X connect 0 0 7 0;
#X connect 2 0 11 0;
#X connect 3 0 4 0;
#X connect 3 1 4 1;
#X connect 4 0 1 0;
#X connect 7 0 3 0;
#X connect 8 0 7 1;
#X connect 9 0 8 0;
#X connect 11 0 10 0;
#X connect 11 1 12 0;
#X connect 11 2 9 0;
#X connect 11 2 3 1;
#X connect 11 2 4 2;
#X connect 12 0 13 0;
#X restore 30 225 pd beequad;
#X connect 0 0 10 0;
#X connect 2 0 6 0;
#X connect 3 0 5 0;
#X connect 4 0 7 0;
#X connect 5 0 9 1;
#X connect 6 0 9 0;
#X connect 7 0 6 0;
#X connect 7 1 5 0;
#X connect 9 0 10 1;
#X connect 9 0 11 1;
#X connect 10 0 11 0;
#X connect 11 0 1 0;
