#N canvas 541 256 770 573 10;
#X obj 43 88 a.play~;
#X obj 43 213 fx.saturation~;
#X obj 43 327 fx.vdelay~;
#X obj 52 25 m.ccin;
#X obj 42 371 a.panner~;
#X obj 42 419 throw~ \$0-l;
#X obj 101 396 throw~ \$0-r;
#X obj 48 477 catch~ \$0-l;
#X obj 72 499 catch~ \$0-r;
#X obj 48 529 dac~;
#X msg 447 65 playback-speed \$1;
#X obj 90 169 m.ccr 0 f 0 1;
#X obj 139 331 m.ccr 10 f 0 1;
#X obj 447 24 m.ccr 1 f 0 2;
#X obj 200 166 m.ccr 5 f 0 1;
#X obj 76 246 m.ccr 6 i 10 1000;
#X obj 110 285 m.ccr 11 f 0 1;
#X connect 0 0 1 0;
#X connect 1 0 2 0;
#X connect 2 0 4 0;
#X connect 4 0 5 0;
#X connect 4 1 6 0;
#X connect 7 0 9 0;
#X connect 8 0 9 1;
#X connect 10 0 0 0;
#X connect 11 0 1 1;
#X connect 12 0 4 1;
#X connect 13 0 10 0;
#X connect 14 0 1 2;
#X connect 15 0 2 1;
#X connect 16 0 2 2;
