#N canvas 576 142 522 490 10;
#X obj 40 18 inlet;
#X obj 40 438 outlet;
#X obj 40 165 t b f b;
#X msg 40 356 \$93;
#X msg 79 186 set;
#X msg 59 206 adddollar \$1;
#X obj 40 380 list;
#X text 148 10 asci2char - convert asci number to its relevant character
;
#X text 147 34 numbers and letters (upper/lowercase) only;
#X text 214 443 jrdooley 2015;
#X obj 40 76 moses 32;
#X obj 40 121 - 31;
#X obj 40 99 moses 126;
#X msg 40 229 list space ! " # $ % & ' ( ) * + comma - . / 0 1 2 3
4 5 6 7 8 9 : semicolon < = > ? @ A B C D E F G H I J K L M N O P Q
R S T U V W X Y Z [ backslash ] ^ _ ` a b c d e f g h i j k l m n o
p q r s t u v w x y z openingbrace | ~ closingbrace;
#X connect 0 0 10 0;
#X connect 2 0 13 0;
#X connect 2 1 5 0;
#X connect 2 2 4 0;
#X connect 3 0 6 0;
#X connect 4 0 3 0;
#X connect 5 0 3 0;
#X connect 6 0 1 0;
#X connect 10 1 12 0;
#X connect 11 0 2 0;
#X connect 12 0 11 0;
#X connect 13 0 3 0;
