#N canvas 354 194 352 308 10;
#X obj 43 38 inlet;
#X obj 222 43 inlet list;
#X text 122 7 list extract;
#X msg 43 219 \$1;
#X msg 89 131 set;
#X msg 66 156 adddollar \$1;
#X obj 43 183 list;
#X obj 43 94 t b f b;
#X obj 43 261 outlet;
#X obj 43 72 max 1;
#X connect 0 0 9 0;
#X connect 1 0 6 1;
#X connect 3 0 8 0;
#X connect 4 0 3 0;
#X connect 5 0 3 0;
#X connect 6 0 3 0;
#X connect 7 0 6 0;
#X connect 7 1 5 0;
#X connect 7 2 4 0;
#X connect 9 0 7 0;
