#N canvas 481 656 450 300 10;
#X obj 139 62 inlet;
#X obj 211 61 inlet;
#X obj 166 263 outlet;
#X msg 211 141 1;
#X obj 166 193 spigot 1;
#X msg 139 142 0;
#X obj 139 116 t b a;
#X connect 0 0 6 0;
#X connect 1 0 3 0;
#X connect 3 0 4 1;
#X connect 4 0 2 0;
#X connect 5 0 4 1;
#X connect 6 0 5 0;
#X connect 6 1 4 0;
