#N canvas 1 58 450 300 10;
#X obj 205 171 timer;
#X obj 104 119 bng 25 250 50 0 empty empty TAP 3 15 0 10 -262144 -1
-1;
#X obj 205 79 i;
#X obj 205 101 + 1;
#X obj 205 123 mod 2;
#X obj 205 145 sel 1 0;
#X floatatom 205 193 5 0 0 0 - - -, f 5;
#X obj 205 235 /;
#X msg 205 212 60000 \$1;
#X floatatom 104 152 5 0 0 1 TEMPO - -, f 5;
#X obj 205 257 i;
#X connect 0 0 6 0;
#X connect 1 0 2 0;
#X connect 2 0 3 0;
#X connect 3 0 2 1;
#X connect 3 0 4 0;
#X connect 4 0 5 0;
#X connect 5 0 0 0;
#X connect 5 1 0 1;
#X connect 6 0 8 0;
#X connect 7 0 10 0;
#X connect 8 0 7 0;
#X connect 10 0 9 0;
#X coords 0 -1 1 1 85 70 1 100 100;
