#N canvas 199 118 759 383 10;
#X obj 652 81 s \$0-tempo;
#X msg 394 37 clear;
#X obj 394 59 s \$0-clear;
#X obj 31 18 inlet record;
#X obj 248 17 inlet play;
#X obj 31 105 s \$0-record;
#X obj 129 40 s \$0-in-value;
#X obj 129 18 inlet in-value;
#X obj 315 85 s \$0-play;
#X obj 248 39 route stop;
#X msg 248 91 stop;
#X obj 37 324 r \$0-out;
#X obj 37 346 outlet;
#X obj 537 83 s \$0-direction;
#X obj 248 113 s \$0-stop;
#X obj 315 62 t b b;
#X obj 394 15 inlet reset;
#X msg 659 58 1;
#X obj 547 39 loadbang;
#X obj 537 61 i 0;
#X obj 41 40 sel 1;
#X msg 41 62 clear;
#X obj 41 84 s \$0-clear;
#X msg 413 79 0;
#X obj 413 101 s \$0-rev-write;
#N canvas 2 88 588 300 seq-playback 0;
#X msg 57 153 line 0;
#X msg 17 153 auto;
#X obj 17 193 text sequence \$0-this -w 1;
#X obj 117 150 r \$0-tempo;
#X obj 136 223 s \$0-done;
#X obj 17 222 s \$0-out;
#X obj 17 44 r \$0-play;
#X obj 17 131 t b b;
#X obj 56 66 r \$0-direction;
#X obj 56 88 == 0;
#X obj 17 109 spigot;
#X obj 198 151 r \$0-stop;
#X msg 117 173 tempo \$1 permsec;
#X msg 337 153 line 0;
#X msg 297 153 auto;
#X obj 397 150 r \$0-tempo;
#X obj 297 222 s \$0-out;
#X obj 297 24 r \$0-play;
#X obj 297 131 t b b;
#X obj 336 46 r \$0-direction;
#X obj 297 69 spigot;
#X obj 478 151 r \$0-stop;
#X msg 397 173 tempo \$1 permsec;
#X obj 297 193 text sequence \$0-this-rev -w 1;
#X obj 334 89 r \$0-rev-write;
#X obj 416 223 s \$0-done;
#X obj 297 110 spigot 1;
#X connect 0 0 2 0;
#X connect 1 0 2 0;
#X connect 2 0 5 0;
#X connect 2 2 4 0;
#X connect 3 0 12 0;
#X connect 6 0 10 0;
#X connect 7 0 1 0;
#X connect 7 1 0 0;
#X connect 8 0 9 0;
#X connect 9 0 10 1;
#X connect 10 0 7 0;
#X connect 11 0 2 0;
#X connect 12 0 2 0;
#X connect 13 0 23 0;
#X connect 14 0 23 0;
#X connect 15 0 22 0;
#X connect 17 0 20 0;
#X connect 18 0 14 0;
#X connect 18 1 13 0;
#X connect 19 0 20 1;
#X connect 20 0 26 0;
#X connect 21 0 23 0;
#X connect 22 0 23 0;
#X connect 23 0 16 0;
#X connect 23 2 25 0;
#X connect 24 0 26 1;
#X connect 26 0 18 0;
#X restore 39 219 pd seq-playback;
#N canvas 1 73 467 519 temporary-reverse-playback 0;
#X obj 36 411 text get \$0-this;
#X obj 54 360 text size \$0-this;
#X obj 36 387 i;
#X obj 65 387 - 1;
#X obj 36 261 t a b;
#X obj 36 333 metro 10;
#X obj 36 237 tgl 15 0 empty empty empty 17 7 0 10 -262144 -1 -1 0
1;
#X obj 141 181 moses 1;
#X msg 36 433 \$2;
#X obj 46 286 r \$0-tempo;
#X obj 36 455 s \$0-out;
#X obj 70 178 r \$0-stop;
#X obj 36 50 r \$0-play;
#X obj 75 72 r \$0-direction;
#X obj 36 95 spigot;
#X obj 141 203 t b;
#X msg 36 177 1;
#X msg 70 230 0;
#X msg 46 308 tempo \$1 msec;
#X obj 89 111 r \$0-rev-write;
#X obj 36 154 spigot 1;
#X obj 89 133 == 0;
#X text 43 17 Plays sequence in reverse whilst waiting for reverse
;
#X obj 141 225 s \$0-done;
#X connect 0 0 8 0;
#X connect 1 0 2 1;
#X connect 2 0 3 0;
#X connect 2 0 0 0;
#X connect 3 0 2 1;
#X connect 3 0 7 0;
#X connect 4 0 5 0;
#X connect 4 1 1 0;
#X connect 5 0 2 0;
#X connect 6 0 4 0;
#X connect 7 0 15 0;
#X connect 7 0 17 0;
#X connect 8 0 10 0;
#X connect 9 0 18 0;
#X connect 11 0 17 0;
#X connect 12 0 14 0;
#X connect 13 0 14 1;
#X connect 14 0 20 0;
#X connect 15 0 23 0;
#X connect 16 0 6 0;
#X connect 17 0 6 0;
#X connect 18 0 5 0;
#X connect 19 0 21 0;
#X connect 20 0 16 0;
#X connect 21 0 20 1;
#X restore 39 268 pd temporary-reverse-playback;
#N canvas 1 98 551 457 seq-reverse-write 0;
#X obj 93 295 text get \$0-this;
#X obj 82 244 text size \$0-this;
#X obj 64 271 i;
#X obj 93 271 - 1;
#X obj 64 175 t a b;
#X obj 64 121 tgl 15 0 empty empty empty 17 7 0 10 -262144 -1 -1 0
1;
#X obj 116 94 moses 1;
#X obj 93 317 t a b;
#X obj 93 364 text set \$0-this-rev;
#X msg 125 340 1e+06;
#X obj 138 167 s \$0-rev-write;
#X msg 138 145 1;
#X obj 64 53 r \$0-record;
#X obj 64 75 sel 0;
#X msg 64 97 1;
#X text 63 20 Writes sequence in reverse \, but is trhottled to avoid
audio glitches;
#X obj 64 217 metro 10;
#X msg 116 116 0;
#X obj 64 141 change;
#X connect 0 0 7 0;
#X connect 1 0 2 1;
#X connect 2 0 3 0;
#X connect 3 0 2 1;
#X connect 3 0 6 0;
#X connect 3 0 0 0;
#X connect 4 0 16 0;
#X connect 4 1 1 0;
#X connect 5 0 18 0;
#X connect 6 0 11 0;
#X connect 6 0 17 0;
#X connect 7 0 8 0;
#X connect 7 1 9 0;
#X connect 9 0 8 1;
#X connect 11 0 10 0;
#X connect 12 0 13 0;
#X connect 13 0 14 0;
#X connect 14 0 5 0;
#X connect 16 0 2 0;
#X connect 17 0 5 0;
#X connect 18 0 4 0;
#X restore 39 247 pd seq-reverse-write;
#N canvas 2 113 377 259 seq-record+tables 0;
#X obj 194 54 text define \$0-this;
#X obj 185 75 text define \$0-this-rev;
#X obj 35 199 text set \$0-this;
#X msg 67 170 1e+06;
#X obj 35 147 t a b;
#X obj 185 28 r \$0-clear;
#X obj 35 52 metro 10;
#X obj 35 27 r \$0-record;
#X obj 35 100 f;
#X obj 53 78 r \$0-in-value;
#X msg 35 122 10 \$1;
#X connect 3 0 2 1;
#X connect 4 0 2 0;
#X connect 4 1 3 0;
#X connect 5 0 1 0;
#X connect 5 0 0 0;
#X connect 6 0 8 0;
#X connect 7 0 6 0;
#X connect 8 0 10 0;
#X connect 9 0 8 1;
#X connect 10 0 4 0;
#X restore 39 196 pd seq-record+tables;
#X msg 123 79 0;
#X obj 123 101 s \$0-rev-write;
#X obj 213 324 r \$0-done;
#X obj 213 346 outlet;
#X obj 537 16 inlet reverse;
#X obj 652 15 inlet speed;
#X connect 1 0 2 0;
#X connect 3 0 5 0;
#X connect 3 0 20 0;
#X connect 4 0 9 0;
#X connect 7 0 6 0;
#X connect 9 0 10 0;
#X connect 9 1 15 0;
#X connect 10 0 14 0;
#X connect 11 0 12 0;
#X connect 15 0 8 0;
#X connect 15 1 10 0;
#X connect 16 0 1 0;
#X connect 16 0 17 0;
#X connect 16 0 23 0;
#X connect 17 0 0 0;
#X connect 18 0 19 0;
#X connect 19 0 13 0;
#X connect 20 0 21 0;
#X connect 20 0 29 0;
#X connect 21 0 22 0;
#X connect 23 0 24 0;
#X connect 29 0 30 0;
#X connect 31 0 32 0;
#X connect 33 0 19 0;
#X connect 34 0 0 0;
