#N canvas 495 352 488 397 10;
#X obj 61 44 inlet;
#X obj 61 353 outlet;
#X obj 233 44 inlet curve;
#X obj 233 211 s \$0-curve;
#X obj 233 144 \$1;
#X obj 233 166 sel 0;
#X msg 233 188 1;
#X obj 243 118 loadbang;
#X obj 61 276 tabread4 \$0-this;
#X obj 78 242 array define \$0-this;
#X obj 61 99 clip 0 1;
#X obj 233 95 max 1;
#N canvas 0 22 257 533 curve-generate 0;
#X obj 72 128 until;
#X obj 72 77 t a b;
#X msg 99 100 0;
#X obj 72 150 i;
#X obj 99 150 + 1;
#X msg 72 54 101;
#X obj 72 486 tabwrite \$0-this;
#X obj 72 10 r \$0-curve;
#X msg 72 271 \$1 0.5;
#X obj 72 293 -;
#X obj 72 335 * -1;
#X obj 72 357 pow 2;
#X obj 72 379 * -1;
#X obj 135 275 - 0.5;
#X obj 135 297 * 2;
#X obj 72 315 * 2;
#X obj 135 319 pow 2;
#X obj 72 172 moses 50;
#X obj 72 204 t a a;
#X obj 72 250 * 0.01;
#X obj 99 227 + 50;
#X obj 135 205 t a a;
#X obj 135 254 * 0.01;
#X obj 162 227 - 50;
#X obj 72 401 + 1;
#X obj 135 341 - 1;
#X obj 72 32 t b a a a a a;
#X obj 72 443 + 1;
#X obj 72 465 * 0.5;
#X connect 0 0 3 0;
#X connect 1 0 0 0;
#X connect 1 1 2 0;
#X connect 2 0 3 1;
#X connect 3 0 4 0;
#X connect 3 0 17 0;
#X connect 4 0 3 1;
#X connect 5 0 1 0;
#X connect 7 0 26 0;
#X connect 8 0 9 0;
#X connect 9 0 15 0;
#X connect 10 0 11 0;
#X connect 11 0 12 0;
#X connect 12 0 24 0;
#X connect 13 0 14 0;
#X connect 14 0 16 0;
#X connect 15 0 10 0;
#X connect 16 0 25 0;
#X connect 17 0 18 0;
#X connect 17 1 21 0;
#X connect 18 0 19 0;
#X connect 18 1 20 0;
#X connect 19 0 8 0;
#X connect 20 0 6 1;
#X connect 21 0 22 0;
#X connect 21 1 23 0;
#X connect 22 0 13 0;
#X connect 23 0 6 1;
#X connect 24 0 27 0;
#X connect 25 0 27 0;
#X connect 26 0 5 0;
#X connect 26 5 11 1;
#X connect 26 5 16 1;
#X connect 27 0 28 0;
#X connect 28 0 6 0;
#X restore 78 220 pd curve-generate;
#X obj 353 44 inlet curve-skew;
#X text 146 317 \$1 (inlet 1) = defines the transfer function \; \$2
(inlet 2) = skews the transfer functions curve;
#X obj 61 171 * 100;
#X obj 61 149 pow 1;
#X obj 353 90 max 0.01;
#X obj 353 214 s \$0-curve-skew;
#X obj 88 123 r \$0-curve-skew;
#X obj 353 163 sel 0;
#X msg 353 185 1;
#X obj 363 115 loadbang;
#X text 61 11 u.transfunc ///// transfer function with skew functionality
;
#X obj 353 141 \$2;
#X connect 0 0 10 0;
#X connect 2 0 11 0;
#X connect 4 0 5 0;
#X connect 5 0 6 0;
#X connect 5 1 3 0;
#X connect 6 0 3 0;
#X connect 7 0 4 0;
#X connect 8 0 1 0;
#X connect 10 0 16 0;
#X connect 11 0 4 0;
#X connect 13 0 17 0;
#X connect 15 0 8 0;
#X connect 16 0 15 0;
#X connect 17 0 24 0;
#X connect 19 0 16 1;
#X connect 20 0 21 0;
#X connect 20 1 18 0;
#X connect 21 0 18 0;
#X connect 22 0 24 0;
#X connect 24 0 20 0;
