#N canvas 1 68 646 679 10;
#X obj 381 540 tabread \$0-urn;
#X obj 264 540 tabwrite \$0-urn;
#X obj 381 459 t a a;
#X obj 264 409 - 1;
#X obj 211 284 select 0;
#X obj 264 512 tabread \$0-urn;
#X obj 450 637 outlet;
#X obj 381 638 outlet;
#X obj 286 27 inlet;
#X obj 33 26 inlet;
#X obj 286 107 f \$1;
#X obj 300 86 loadbang;
#X obj 129 113 b;
#X obj 381 436 random;
#X text 507 637 bang if urn empty;
#X text 274 639 urn selection;
#X msg 381 382 seed \$1;
#X obj 381 357 f;
#X obj 347 173 table \$0-urn \$1;
#X obj 264 381 t a b;
#X obj 33 89 route bang seed clear;
#N canvas 547 278 251 276 gate_2 0;
#X obj 68 18 inlet;
#X obj 116 18 inlet;
#X obj 68 212 outlet;
#X obj 122 212 outlet;
#X obj 68 92 f 0;
#X obj 68 118 select 0 1;
#X obj 68 68 b;
#X connect 0 0 6 0;
#X connect 1 0 4 1;
#X connect 4 0 5 0;
#X connect 5 0 2 0;
#X connect 5 1 3 0;
#X connect 6 0 4 0;
#X restore 211 207 pd gate_2;
#N canvas 0 50 450 300 init-urn-table 0;
#N canvas 0 50 450 300 count 0;
#X obj 158 193 + 1;
#X obj 122 158 until;
#X obj 122 194 f;
#X obj 122 101 inlet;
#X msg 167 157 0;
#X obj 122 120 t a b;
#X obj 122 224 outlet;
#X connect 0 0 2 1;
#X connect 1 0 2 0;
#X connect 2 0 0 0;
#X connect 2 0 6 0;
#X connect 3 0 5 0;
#X connect 4 0 2 1;
#X connect 5 0 1 0;
#X connect 5 1 4 0;
#X restore 117 197 pd count;
#X obj 117 218 t a a;
#X obj 117 249 tabwrite \$0-urn;
#X obj 147 173 s \$0-urn;
#X msg 147 148 resize \$1;
#X obj 117 82 t a a;
#X obj 117 49 inlet;
#X obj 147 128 change;
#X obj 147 105 int;
#X connect 0 0 1 0;
#X connect 1 0 2 0;
#X connect 1 1 2 1;
#X connect 4 0 3 0;
#X connect 5 0 0 0;
#X connect 5 1 8 0;
#X connect 6 0 5 0;
#X connect 7 0 4 0;
#X connect 8 0 7 0;
#X restore 346 151 pd init-urn-table;
#X obj 286 127 t b a a a;
#X obj 211 308 t b b;
#X msg 286 183 0;
#X msg 243 332 1;
#N canvas 226 203 627 317 LICENSE-BSD 0;
#X text 121 56 This software is copyrighted by Miller Puckette \, Reality
Jockey Ltd. and others. The terms (the "Standard Improved BSD License")
apply to all files associated with the software unless explicitly disclaimed
in individual files.;
#X text 123 148 See the file LICENSE.txt for the full license text.
;
#X restore 443 50 pd LICENSE-BSD;
#X obj 81 156 s \$0-seed;
#X obj 381 328 r \$0-seed;
#X obj 129 135 s \$0-clear;
#X obj 297 63 r \$0-clear;
#X obj 211 182 r \$0-bang;
#X obj 33 179 s \$0-bang;
#X obj 450 589 r \$0-empty;
#X obj 211 353 s \$0-empty;
#X obj 271 231 s \$0-empty;
#X obj 326 201 s \$0-random;
#X obj 420 408 r \$0-random;
#X obj 274 441 s \$0-random;
#N canvas 686 559 264 239 count-down- 0;
#X obj 59 66 inlet;
#X obj 127 64 inlet;
#X obj 59 159 outlet;
#X text 123 41 count from?;
#X text 54 35 trigger;
#X obj 59 96 bang;
#X obj 95 131 - 1;
#X obj 59 131 f;
#X connect 0 0 5 0;
#X connect 1 0 7 1;
#X connect 5 0 7 0;
#X connect 6 0 7 1;
#X connect 7 0 6 0;
#X connect 7 0 2 0;
#X restore 211 258 pd count-down-;
#X connect 0 0 7 0;
#X connect 2 0 0 0;
#X connect 2 1 1 1;
#X connect 3 0 5 0;
#X connect 3 0 39 0;
#X connect 4 0 24 0;
#X connect 4 1 19 0;
#X connect 5 0 1 0;
#X connect 8 0 10 0;
#X connect 9 0 20 0;
#X connect 10 0 23 0;
#X connect 11 0 10 0;
#X connect 12 0 30 0;
#X connect 13 0 2 0;
#X connect 16 0 13 0;
#X connect 17 0 16 0;
#X connect 19 0 3 0;
#X connect 19 1 13 0;
#X connect 20 0 33 0;
#X connect 20 1 28 0;
#X connect 20 2 12 0;
#X connect 21 0 40 0;
#X connect 21 1 36 0;
#X connect 23 0 25 0;
#X connect 23 1 40 1;
#X connect 23 2 37 0;
#X connect 23 3 22 0;
#X connect 24 0 35 0;
#X connect 24 1 26 0;
#X connect 25 0 21 1;
#X connect 26 0 21 1;
#X connect 29 0 17 0;
#X connect 31 0 10 0;
#X connect 32 0 21 0;
#X connect 34 0 6 0;
#X connect 38 0 13 1;
#X connect 40 0 4 0;
