#N canvas 1111 294 516 657 10;
#X obj 21 47 array define \$1 515;
#X obj 200 243 until;
#X obj 200 289 i;
#X obj 200 311 + 1;
#X msg 232 267 0;
#X msg 241 369 1 \$1;
#X obj 241 391 /;
#X obj 241 438 t b f;
#X obj 241 518 list append;
#X obj 241 540 list prepend sinesum 512;
#X obj 200 361 sel;
#X obj 200 570 list;
#X obj 200 592 list trim;
#X obj 241 494 list;
#X obj 200 45 loadbang;
#X obj 200 74 \$2;
#X obj 200 96 sel 0;
#X msg 200 118 256;
#X obj 200 615 s \$1;
#X obj 200 219 t f b;
#X obj 223 194 s \$0-clear-lists;
#X obj 315 450 r \$0-clear-lists;
#X obj 200 147 t f b f;
#X obj 246 171 s \$0-to-sel;
#X obj 218 338 r \$0-to-sel;
#X obj 241 413 * 0.54;
#X text 290 74 \$1 = wavetable name \; \$2 = number of partials;
#X text 182 27 creates an ascending sawtooth wave;
#X connect 1 0 2 0;
#X connect 2 0 3 0;
#X connect 3 0 2 1;
#X connect 3 0 10 0;
#X connect 3 0 5 0;
#X connect 4 0 2 1;
#X connect 5 0 6 0;
#X connect 6 0 25 0;
#X connect 7 0 13 0;
#X connect 7 1 8 1;
#X connect 8 0 9 0;
#X connect 8 0 13 1;
#X connect 9 0 11 1;
#X connect 10 0 11 0;
#X connect 11 0 12 0;
#X connect 12 0 18 0;
#X connect 13 0 8 0;
#X connect 14 0 15 0;
#X connect 15 0 16 0;
#X connect 16 0 17 0;
#X connect 16 1 22 0;
#X connect 17 0 22 0;
#X connect 19 0 1 0;
#X connect 19 1 4 0;
#X connect 21 0 8 1;
#X connect 21 0 13 1;
#X connect 22 0 19 0;
#X connect 22 1 20 0;
#X connect 22 2 23 0;
#X connect 24 0 10 1;
#X connect 25 0 7 0;
