#N canvas 155 306 478 702 10;
#X obj 181 238 until;
#X obj 181 284 i;
#X obj 181 306 + 1;
#X msg 213 262 0;
#X msg 288 394 1 \$1;
#X obj 288 416 /;
#X obj 288 438 * 1;
#X obj 222 483 t b f;
#X obj 222 387 mod 2;
#X obj 222 409 sel 1;
#X msg 254 430 0;
#X obj 222 460 f;
#X obj 222 364 t f f;
#X obj 222 563 list append;
#X obj 222 585 list prepend sinesum 512;
#X obj 181 356 sel;
#X obj 181 615 list;
#X obj 181 637 list trim;
#X obj 222 539 list;
#X obj 181 40 loadbang;
#X obj 181 69 \$2;
#X text 182 11 creates a square wave;
#X obj 181 91 sel 0;
#X msg 181 113 256;
#X text 272 47 \$1 = wavetable name \; \$2 = number of partials;
#X obj 22 30 array define \$1 515;
#X obj 181 660 s \$1;
#X obj 181 214 t f b;
#X obj 204 191 s \$0-clear-lists;
#X obj 296 495 r \$0-clear-lists;
#X obj 181 142 t f b f;
#X obj 227 166 s \$0-to-sel;
#X obj 199 333 r \$0-to-sel;
#X connect 0 0 1 0;
#X connect 1 0 2 0;
#X connect 2 0 1 1;
#X connect 2 0 12 0;
#X connect 2 0 15 0;
#X connect 3 0 1 1;
#X connect 4 0 5 0;
#X connect 5 0 6 0;
#X connect 6 0 11 1;
#X connect 7 0 18 0;
#X connect 7 1 13 1;
#X connect 8 0 9 0;
#X connect 9 0 11 0;
#X connect 9 1 10 0;
#X connect 10 0 11 0;
#X connect 11 0 7 0;
#X connect 12 0 8 0;
#X connect 12 1 4 0;
#X connect 13 0 14 0;
#X connect 13 0 18 1;
#X connect 14 0 16 1;
#X connect 15 0 16 0;
#X connect 16 0 17 0;
#X connect 17 0 26 0;
#X connect 18 0 13 0;
#X connect 19 0 20 0;
#X connect 20 0 22 0;
#X connect 22 0 23 0;
#X connect 22 1 30 0;
#X connect 23 0 30 0;
#X connect 27 0 0 0;
#X connect 27 1 3 0;
#X connect 29 0 13 1;
#X connect 29 0 18 1;
#X connect 30 0 27 0;
#X connect 30 1 28 0;
#X connect 30 2 31 0;
#X connect 32 0 15 1;
