#N canvas 816 184 529 792 10;
#X obj 181 238 until;
#X obj 181 284 i;
#X obj 181 306 + 1;
#X msg 213 262 0;
#X obj 222 573 t b f;
#X obj 222 653 list append;
#X obj 222 675 list prepend sinesum 512;
#X obj 181 356 sel;
#X obj 181 705 list;
#X obj 181 727 list trim;
#X obj 222 629 list;
#X obj 181 40 loadbang;
#X obj 181 69 \$2;
#X obj 181 91 sel 0;
#X msg 181 113 256;
#X text 272 47 \$1 = wavetable name \; \$2 = number of partials;
#X obj 22 40 array define \$1 515;
#X obj 181 750 s \$1;
#X obj 181 214 t f b;
#X obj 204 191 s \$0-clear-lists;
#X obj 296 585 r \$0-clear-lists;
#X obj 181 142 t f b f;
#X obj 227 166 s \$0-to-sel;
#X obj 199 333 r \$0-to-sel;
#X msg 289 442 1 \$1;
#X obj 289 464 /;
#X obj 289 486 * 1;
#X obj 222 443 mod 2;
#X obj 222 465 sel 1;
#X msg 254 486 0;
#X obj 222 546 f;
#X msg 335 456 -1;
#X msg 367 457 1;
#X obj 335 412 mod 4;
#X obj 335 434 sel 2;
#X obj 289 419 pow 2;
#X obj 222 365 t f f f;
#X obj 335 390 - 1;
#X obj 289 508 * 0.8;
#X text 182 11 creates a triangle wave;
#X connect 0 0 1 0;
#X connect 1 0 2 0;
#X connect 2 0 1 1;
#X connect 2 0 7 0;
#X connect 2 0 36 0;
#X connect 3 0 1 1;
#X connect 4 0 10 0;
#X connect 4 1 5 1;
#X connect 5 0 6 0;
#X connect 5 0 10 1;
#X connect 6 0 8 1;
#X connect 7 0 8 0;
#X connect 8 0 9 0;
#X connect 9 0 17 0;
#X connect 10 0 5 0;
#X connect 11 0 12 0;
#X connect 12 0 13 0;
#X connect 13 0 14 0;
#X connect 13 1 21 0;
#X connect 14 0 21 0;
#X connect 18 0 0 0;
#X connect 18 1 3 0;
#X connect 20 0 5 1;
#X connect 20 0 10 1;
#X connect 21 0 18 0;
#X connect 21 1 19 0;
#X connect 21 2 22 0;
#X connect 23 0 7 1;
#X connect 24 0 25 0;
#X connect 25 0 26 0;
#X connect 26 0 38 0;
#X connect 27 0 28 0;
#X connect 28 0 30 0;
#X connect 28 1 29 0;
#X connect 29 0 30 0;
#X connect 30 0 4 0;
#X connect 31 0 26 1;
#X connect 32 0 26 1;
#X connect 33 0 34 0;
#X connect 34 0 31 0;
#X connect 34 1 32 0;
#X connect 35 0 24 0;
#X connect 36 0 27 0;
#X connect 36 1 35 0;
#X connect 36 2 37 0;
#X connect 37 0 33 0;
#X connect 38 0 30 1;
