#N canvas 919 564 652 414 10;
#X obj 142 93 s \$0-sel;
#X obj 142 32 inlet waveform-select;
#X obj 15 363 outlet~;
#X obj 15 308 catch~ \$0-out;
#X obj 19 30 inlet~;
#N canvas 1 153 314 401 sine 0;
#X obj 39 307 *~;
#X text 61 50 sine;
#X obj 57 162 clip 0 1;
#X msg 57 184 1 \$1;
#X obj 57 206 -;
#X obj 57 136 r \$0-sel;
#X obj 39 329 throw~ \$0-out;
#X msg 57 229 \$1 10;
#X obj 40 101 cos~;
#X obj 41 75 inlet~;
#X obj 57 251 vline~;
#X connect 0 0 6 0;
#X connect 2 0 3 0;
#X connect 3 0 4 0;
#X connect 4 0 7 0;
#X connect 5 0 2 0;
#X connect 7 0 10 0;
#X connect 8 0 0 0;
#X connect 9 0 8 0;
#X connect 10 0 0 1;
#X restore 36 142 pd sine;
#N canvas 269 375 316 527 triangle 0;
#X obj 54 416 *~;
#X text 50 18 triangle;
#X obj 72 231 clip 0 2;
#X obj 72 255 moses 1;
#X msg 118 300 1 \$1;
#X obj 118 322 -;
#X obj 118 278 - 1;
#X obj 72 344 f;
#X obj 72 205 r \$0-sel;
#X obj 54 468 throw~ \$0-out;
#X msg 72 369 \$1 10;
#X obj 140 69 *~ -2;
#X obj 140 91 +~ 1;
#X obj 55 69 *~ 2;
#X obj 55 91 -~ 1;
#X obj 54 136 +~;
#X obj 55 113 clip~ 0 1;
#X obj 140 113 clip~ 0 1;
#X obj 54 158 *~ 2;
#X obj 54 180 -~ 1;
#X obj 54 36 inlet~;
#X obj 72 391 vline~;
#X connect 0 0 9 0;
#X connect 2 0 3 0;
#X connect 3 0 7 0;
#X connect 3 1 6 0;
#X connect 4 0 5 0;
#X connect 5 0 7 0;
#X connect 6 0 4 0;
#X connect 7 0 10 0;
#X connect 8 0 2 0;
#X connect 10 0 21 0;
#X connect 11 0 12 0;
#X connect 12 0 17 0;
#X connect 13 0 14 0;
#X connect 14 0 16 0;
#X connect 15 0 18 0;
#X connect 16 0 15 0;
#X connect 17 0 15 1;
#X connect 18 0 19 0;
#X connect 19 0 0 0;
#X connect 20 0 13 0;
#X connect 20 0 11 0;
#X connect 21 0 0 1;
#X restore 32 172 pd triangle;
#N canvas 1 178 302 438 sawtooth 0;
#X obj 46 352 *~;
#X text 48 17 sawtooth;
#X obj 64 188 moses 1;
#X msg 110 233 1 \$1;
#X obj 110 255 -;
#X obj 110 211 - 1;
#X obj 64 277 f;
#X obj 64 117 r \$0-sel;
#X obj 46 404 throw~ \$0-out;
#X msg 64 299 \$1 10;
#X obj 46 63 *~ 2;
#X obj 46 85 -~ 1;
#X obj 64 143 clip 2 4;
#X obj 64 165 - 2;
#X obj 46 42 inlet~;
#X obj 64 324 vline~;
#X connect 0 0 8 0;
#X connect 2 0 6 0;
#X connect 2 1 5 0;
#X connect 3 0 4 0;
#X connect 4 0 6 0;
#X connect 5 0 3 0;
#X connect 6 0 9 0;
#X connect 7 0 12 0;
#X connect 9 0 15 0;
#X connect 10 0 11 0;
#X connect 11 0 0 0;
#X connect 12 0 13 0;
#X connect 13 0 2 0;
#X connect 14 0 10 0;
#X connect 15 0 0 1;
#X restore 22 236 pd sawtooth;
#N canvas 1 173 327 581 square 0;
#X obj 52 457 *~;
#X text 52 25 square;
#X obj 70 294 moses 1;
#X msg 116 339 1 \$1;
#X obj 116 361 -;
#X obj 116 317 - 1;
#X obj 70 383 f;
#X obj 70 223 r \$0-sel;
#X obj 52 521 throw~ \$0-out;
#X msg 70 405 \$1 10;
#X obj 51 176 +~;
#X obj 68 110 +~ 0.5;
#X obj 68 132 wrap~;
#X obj 68 154 -~ 1;
#X obj 68 88 *~ -1;
#X obj 51 198 *~ 2;
#X obj 52 479 *~ 1;
#X obj 70 249 clip 1 3;
#X obj 70 271 - 1;
#X obj 51 53 inlet~;
#X obj 70 430 vline~;
#X connect 0 0 16 0;
#X connect 2 0 6 0;
#X connect 2 1 5 0;
#X connect 3 0 4 0;
#X connect 4 0 6 0;
#X connect 5 0 3 0;
#X connect 6 0 9 0;
#X connect 7 0 17 0;
#X connect 9 0 20 0;
#X connect 10 0 15 0;
#X connect 11 0 12 0;
#X connect 12 0 13 0;
#X connect 13 0 10 1;
#X connect 14 0 11 0;
#X connect 15 0 0 0;
#X connect 16 0 8 0;
#X connect 17 0 18 0;
#X connect 18 0 2 0;
#X connect 19 0 14 0;
#X connect 19 0 10 0;
#X connect 20 0 0 1;
#X restore 27 204 pd square;
#X text 12 6 frequency;
#N canvas 235 553 420 526 impulse 0;
#X obj 46 432 *~;
#X text 48 17 sawtooth;
#X obj 64 268 moses 1;
#X msg 110 313 1 \$1;
#X obj 110 335 -;
#X obj 110 291 - 1;
#X obj 64 357 f;
#X obj 64 197 r \$0-sel;
#X obj 46 484 throw~ \$0-out;
#X msg 64 379 \$1 10;
#X obj 64 223 clip 3 5;
#X obj 64 245 - 3;
#X obj 179 96 array define -k \$0-this 100;
#A 0 0 1 -1 0 0 0 0 0 0 0 0 0 0 0 0 0 0 0 0 0 0 0 0 0 0 0 0 0 0 0 0
0 0 0 0 0 0 0 0 0 0 0 0 0 0 0 0 0 0 0 0 0 0 0 0 0 0 0 0 0 0 0 0 0 0
0 0 0 0 0 0 0 0 0 0 0 0 0 0 0 0 0 0 0 0 0 0 0 0 0 0 0 0 0 0 0 0 0 0
0;
#X obj 46 74 *~ 100;
#X obj 46 96 tabread4~ \$0-this;
#X obj 46 42 inlet~;
#X obj 64 404 vline~;
#X connect 0 0 8 0;
#X connect 2 0 6 0;
#X connect 2 1 5 0;
#X connect 3 0 4 0;
#X connect 4 0 6 0;
#X connect 5 0 3 0;
#X connect 6 0 9 0;
#X connect 7 0 10 0;
#X connect 9 0 16 0;
#X connect 10 0 11 0;
#X connect 11 0 2 0;
#X connect 13 0 14 0;
#X connect 14 0 0 0;
#X connect 15 0 13 0;
#X connect 16 0 0 1;
#X restore 16 266 pd impulse;
#X obj 15 333 lop~ 15000;
#X text 116 337 <- crude band-limiting;
#X obj 19 80 phasor~;
#X obj 323 25 inlet phase-reset;
#X obj 323 47 s \$0-phase;
#X obj 65 59 r \$0-phase;
#X text 220 74 change between sine \, triangle \, square \, sawtooth
\, impulse;
#X obj 142 71 clip 0 5;
#X connect 1 0 18 0;
#X connect 3 0 11 0;
#X connect 4 0 13 0;
#X connect 11 0 2 0;
#X connect 13 0 5 0;
#X connect 13 0 6 0;
#X connect 13 0 8 0;
#X connect 13 0 7 0;
#X connect 13 0 10 0;
#X connect 14 0 15 0;
#X connect 16 0 13 1;
#X connect 18 0 0 0;
